<?xml version="1.0" encoding="utf-8"?>
<!-- Generator: Adobe Illustrator 16.0.0, SVG Export Plug-In . SVG Version: 6.00 Build 0)  -->
<!DOCTYPE svg PUBLIC "-//W3C//DTD SVG 1.1//EN" "http://www.w3.org/Graphics/SVG/1.1/DTD/svg11.dtd">
<svg version="1.1" id="Capa_1" xmlns="http://www.w3.org/2000/svg" xmlns:xlink="http://www.w3.org/1999/xlink" x="0px" y="0px"
	 width="478.176px" height="226.523px" viewBox="0 0 478.176 226.523" enable-background="new 0 0 478.176 226.523"
	 xml:space="preserve">
<g>
	<g>
		<defs>
			<polygon id="SVGID_183_" points="58.744,34.083 45.986,69.587 33.412,34.083 23.631,34.083 41.332,84.061 50.506,84.061 
				68.514,34.083 			"/>
		</defs>
		<clipPath id="SVGID_2_">
			<use xlink:href="#SVGID_183_"  overflow="visible"/>
		</clipPath>
		
			<linearGradient id="SVGID_4_" gradientUnits="userSpaceOnUse" x1="-2475.4805" y1="1186.0586" x2="-2474.481" y2="1186.0586" gradientTransform="matrix(0 -57.2501 -57.2501 0 67948.0391 -141639.875)">
			<stop  offset="0" style="stop-color:#F7941D"/>
			<stop  offset="1" style="stop-color:#F9ED32"/>
		</linearGradient>
		<rect x="23.631" y="34.083" clip-path="url(#SVGID_2_)" fill="url(#SVGID_4_)" width="44.883" height="49.978"/>
	</g>
	<g>
		<defs>
			<polygon id="SVGID_186_" points="76.174,34.083 76.174,84.061 103.455,84.061 103.455,74.718 85.619,74.718 85.619,61.569 
				103.455,61.569 103.455,52.431 85.619,52.431 85.619,43.393 103.455,43.393 103.455,34.083 			"/>
		</defs>
		<clipPath id="SVGID_6_">
			<use xlink:href="#SVGID_186_"  overflow="visible"/>
		</clipPath>
		
			<linearGradient id="SVGID_8_" gradientUnits="userSpaceOnUse" x1="-2475.4805" y1="1186.0586" x2="-2474.481" y2="1186.0586" gradientTransform="matrix(0 -57.2501 -57.2501 0 67991.7891 -141639.875)">
			<stop  offset="0" style="stop-color:#F7941D"/>
			<stop  offset="1" style="stop-color:#F9ED32"/>
		</linearGradient>
		<rect x="76.174" y="34.083" clip-path="url(#SVGID_6_)" fill="url(#SVGID_8_)" width="27.281" height="49.978"/>
	</g>
	<g>
		<defs>
			<polygon id="SVGID_189_" points="142.867,34.083 142.867,66.972 121.482,34.083 112.357,34.083 112.357,84.061 121.871,84.061 
				121.871,51.275 143.229,84.061 152.379,84.061 152.379,34.083 			"/>
		</defs>
		<clipPath id="SVGID_10_">
			<use xlink:href="#SVGID_189_"  overflow="visible"/>
		</clipPath>
		
			<linearGradient id="SVGID_12_" gradientUnits="userSpaceOnUse" x1="-2475.4805" y1="1186.0596" x2="-2474.481" y2="1186.0596" gradientTransform="matrix(0 -57.2501 -57.2501 0 68034.3516 -141639.875)">
			<stop  offset="0" style="stop-color:#F7941D"/>
			<stop  offset="1" style="stop-color:#F9ED32"/>
		</linearGradient>
		<rect x="112.357" y="34.083" clip-path="url(#SVGID_10_)" fill="url(#SVGID_12_)" width="40.021" height="49.978"/>
	</g>
	<g>
		<defs>
			<path id="SVGID_192_" d="M173.273,43.257h3.229c5.912,0,10.203,1.316,12.877,3.946c2.965,2.925,4.449,7.04,4.449,12.346
				c0,3.447-0.621,6.348-1.867,8.706c-1.246,2.359-2.848,4.037-4.809,5.034c-1.959,0.998-5.113,1.497-9.461,1.497h-4.418V43.257z
				 M163.83,34.083v49.978h11.439c6.473,0,11.02-0.408,13.645-1.223c2.627-0.815,5.064-2.288,7.316-4.417s4.016-4.808,5.295-8.035
				c1.279-3.228,1.918-6.767,1.918-10.618c0-5.412-1.143-10.146-3.428-14.201c-2.287-4.053-5.193-6.981-8.725-8.782
				c-3.529-1.801-8.928-2.702-16.191-2.702H163.83z"/>
		</defs>
		<clipPath id="SVGID_14_">
			<use xlink:href="#SVGID_192_"  overflow="visible"/>
		</clipPath>
		
			<linearGradient id="SVGID_16_" gradientUnits="userSpaceOnUse" x1="-2475.4805" y1="1186.0586" x2="-2474.481" y2="1186.0586" gradientTransform="matrix(0 -57.2501 -57.2501 0 68085.6016 -141639.875)">
			<stop  offset="0" style="stop-color:#F7941D"/>
			<stop  offset="1" style="stop-color:#F9ED32"/>
		</linearGradient>
		<rect x="163.83" y="34.083" clip-path="url(#SVGID_14_)" fill="url(#SVGID_16_)" width="39.613" height="49.978"/>
	</g>
	<g>
		<defs>
			<polygon id="SVGID_195_" points="212.549,34.083 212.549,84.061 239.83,84.061 239.83,74.718 221.994,74.718 221.994,61.569 
				239.83,61.569 239.83,52.431 221.994,52.431 221.994,43.393 239.83,43.393 239.83,34.083 			"/>
		</defs>
		<clipPath id="SVGID_18_">
			<use xlink:href="#SVGID_195_"  overflow="visible"/>
		</clipPath>
		
			<linearGradient id="SVGID_20_" gradientUnits="userSpaceOnUse" x1="-2475.4805" y1="1186.0596" x2="-2474.481" y2="1186.0596" gradientTransform="matrix(0 -57.2501 -57.2501 0 68128.1641 -141639.875)">
			<stop  offset="0" style="stop-color:#F7941D"/>
			<stop  offset="1" style="stop-color:#F9ED32"/>
		</linearGradient>
		<rect x="212.549" y="34.083" clip-path="url(#SVGID_18_)" fill="url(#SVGID_20_)" width="27.281" height="49.978"/>
	</g>
	<g>
		<defs>
			<path id="SVGID_198_" d="M258.178,43.257h3.229c5.91,0,10.203,1.316,12.875,3.946c2.967,2.925,4.451,7.04,4.451,12.346
				c0,3.447-0.623,6.348-1.869,8.706c-1.244,2.359-2.848,4.037-4.807,5.034c-1.959,0.998-5.113,1.497-9.463,1.497h-4.416V43.257z
				 M248.732,34.083v49.978h11.439c6.475,0,11.021-0.408,13.646-1.223s5.062-2.288,7.314-4.417s4.018-4.808,5.297-8.035
				c1.277-3.228,1.918-6.767,1.918-10.618c0-5.412-1.143-10.146-3.43-14.201c-2.285-4.053-5.193-6.981-8.723-8.782
				c-3.531-1.801-8.928-2.702-16.193-2.702H248.732z"/>
		</defs>
		<clipPath id="SVGID_22_">
			<use xlink:href="#SVGID_198_"  overflow="visible"/>
		</clipPath>
		
			<linearGradient id="SVGID_24_" gradientUnits="userSpaceOnUse" x1="-2475.4805" y1="1186.0586" x2="-2474.481" y2="1186.0586" gradientTransform="matrix(0 -57.2501 -57.2501 0 68170.5078 -141639.875)">
			<stop  offset="0" style="stop-color:#F7941D"/>
			<stop  offset="1" style="stop-color:#F9ED32"/>
		</linearGradient>
		<rect x="248.732" y="34.083" clip-path="url(#SVGID_22_)" fill="url(#SVGID_24_)" width="39.615" height="49.978"/>
	</g>
	<g>
		<defs>
			<path id="SVGID_201_" d="M310.473,72.34c-3.969-3.216-5.951-7.588-5.951-13.114c0-4.961,1.572-9.049,4.725-12.266
				c3.152-3.216,7.041-4.824,11.666-4.824c4.58,0,8.469,1.647,11.666,4.943c3.197,3.296,4.795,7.322,4.795,12.078
				c0,4.779-1.588,8.801-4.762,12.061c-3.174,3.262-7.018,4.893-11.529,4.893C317.092,76.111,313.557,74.853,310.473,72.34
				 M307.943,36.343c-4.047,2.344-7.227,5.522-9.537,9.53c-2.312,4.009-3.467,8.404-3.467,13.183c0,7.134,2.48,13.295,7.443,18.482
				c4.965,5.188,11.197,7.781,18.699,7.781c7.162,0,13.254-2.526,18.273-7.577c5.02-5.05,7.531-11.224,7.531-18.516
				c0-7.361-2.545-13.602-7.633-18.721c-5.088-5.118-11.168-7.678-18.238-7.678C316.346,32.827,311.988,34,307.943,36.343"/>
		</defs>
		<clipPath id="SVGID_26_">
			<use xlink:href="#SVGID_201_"  overflow="visible"/>
		</clipPath>
		
			<linearGradient id="SVGID_28_" gradientUnits="userSpaceOnUse" x1="-2475.4805" y1="1186.0586" x2="-2474.481" y2="1186.0586" gradientTransform="matrix(0 -57.2501 -57.2501 0 68222.8828 -141639.875)">
			<stop  offset="0" style="stop-color:#F7941D"/>
			<stop  offset="1" style="stop-color:#F9ED32"/>
		</linearGradient>
		<rect x="294.939" y="32.827" clip-path="url(#SVGID_26_)" fill="url(#SVGID_28_)" width="51.947" height="52.492"/>
	</g>
	<g>
		<defs>
			<path id="SVGID_204_" d="M366.016,43.359h2.607c2.529,0,4.268,0.176,5.215,0.529c0.949,0.352,1.705,0.931,2.27,1.738
				s0.846,1.756,0.846,2.847c0,1.84-0.568,3.159-1.709,3.953c-1.141,0.796-3.223,1.194-6.248,1.194h-2.98V43.359z M356.502,34.083
				v49.978h9.514V62.895h0.869l11.238,21.166h10.4l-11.84-22.22c3.17-1.132,5.543-2.803,7.117-5.011s2.361-4.955,2.361-8.239
				c0-3.125-0.713-5.832-2.139-8.12c-1.426-2.287-3.309-3.923-5.65-4.909c-2.342-0.985-6.271-1.479-11.793-1.479H356.502z"/>
		</defs>
		<clipPath id="SVGID_29_">
			<use xlink:href="#SVGID_204_"  overflow="visible"/>
		</clipPath>
		
			<linearGradient id="SVGID_31_" gradientUnits="userSpaceOnUse" x1="-2475.4805" y1="1186.0586" x2="-2474.481" y2="1186.0586" gradientTransform="matrix(0 -57.2501 -57.2501 0 68274.4766 -141639.875)">
			<stop  offset="0" style="stop-color:#F7941D"/>
			<stop  offset="1" style="stop-color:#F9ED32"/>
		</linearGradient>
		<rect x="356.502" y="34.083" clip-path="url(#SVGID_29_)" fill="url(#SVGID_31_)" width="32.021" height="49.978"/>
	</g>
	<g>
		<defs>
			<polygon id="SVGID_207_" points="396.252,34.083 396.252,84.061 423.533,84.061 423.533,74.718 405.697,74.718 405.697,61.569 
				423.533,61.569 423.533,52.431 405.697,52.431 405.697,43.393 423.533,43.393 423.533,34.083 			"/>
		</defs>
		<clipPath id="SVGID_33_">
			<use xlink:href="#SVGID_207_"  overflow="visible"/>
		</clipPath>
		
			<linearGradient id="SVGID_35_" gradientUnits="userSpaceOnUse" x1="-2475.4805" y1="1186.0586" x2="-2474.481" y2="1186.0586" gradientTransform="matrix(0 -57.2501 -57.2501 0 68311.8516 -141639.875)">
			<stop  offset="0" style="stop-color:#F7941D"/>
			<stop  offset="1" style="stop-color:#F9ED32"/>
		</linearGradient>
		<rect x="396.252" y="34.083" clip-path="url(#SVGID_33_)" fill="url(#SVGID_35_)" width="27.281" height="49.978"/>
	</g>
	<g>
		<defs>
			<path id="SVGID_210_" d="M434.395,36.548c-2.643,2.479-3.963,5.452-3.963,8.918c0,2.401,0.793,4.807,2.383,7.219
				c1.586,2.412,5.104,5.839,10.549,10.278c2.859,2.332,4.707,4.066,5.549,5.198c0.838,1.133,1.258,2.265,1.258,3.397
				c0,1.246-0.555,2.345-1.668,3.295c-1.109,0.952-2.482,1.428-4.117,1.428c-3.129,0-5.896-2.209-8.303-6.625l-7.996,4.824
				c1.883,3.738,4.145,6.478,6.787,8.222c2.641,1.744,5.742,2.617,9.301,2.617c4.559,0,8.254-1.337,11.088-4.01
				c2.834-2.672,4.252-6.059,4.252-10.158c0-2.107-0.402-4.048-1.209-5.827c-0.805-1.778-2.172-3.64-4.1-5.589
				c-0.771-0.793-2.973-2.706-6.604-5.742c-3.879-3.284-6.205-5.424-6.977-6.421c-0.566-0.747-0.852-1.54-0.852-2.378
				s0.396-1.591,1.191-2.26c0.795-0.668,1.816-1.002,3.064-1.002c2.562,0,5.082,1.722,7.555,5.164l7.045-6.218
				c-2.629-3.057-5.072-5.164-7.328-6.319c-2.258-1.154-4.633-1.732-7.129-1.732C440.295,32.827,437.035,34.067,434.395,36.548"/>
		</defs>
		<clipPath id="SVGID_36_">
			<use xlink:href="#SVGID_210_"  overflow="visible"/>
		</clipPath>
		
			<linearGradient id="SVGID_38_" gradientUnits="userSpaceOnUse" x1="-2475.4805" y1="1186.0586" x2="-2474.481" y2="1186.0586" gradientTransform="matrix(0 -57.2501 -57.2501 0 68345.7891 -141639.875)">
			<stop  offset="0" style="stop-color:#F7941D"/>
			<stop  offset="1" style="stop-color:#F9ED32"/>
		</linearGradient>
		<rect x="428.086" y="32.827" clip-path="url(#SVGID_36_)" fill="url(#SVGID_38_)" width="31.428" height="52.492"/>
	</g>
	<g>
		<defs>
			<path id="SVGID_213_" d="M13.502,87.008V30.833c0-11.789,9.59-21.379,21.377-21.379h415.514c11.789,0,21.377,9.59,21.377,21.379
				v56.175c0,11.787-9.588,21.377-21.377,21.377H34.879C23.092,108.385,13.502,98.795,13.502,87.008 M34.879,0
				c-17,0-30.83,13.832-30.83,30.833v56.175c0,17,13.83,30.831,30.83,30.831h415.514c17,0,30.832-13.831,30.832-30.831V30.833
				C481.225,13.832,467.393,0,450.393,0H34.879z"/>
		</defs>
		<clipPath id="SVGID_40_">
			<use xlink:href="#SVGID_213_"  overflow="visible"/>
		</clipPath>
		
			<linearGradient id="SVGID_42_" gradientUnits="userSpaceOnUse" x1="-2477.8047" y1="1207.1807" x2="-2476.8047" y2="1207.1807" gradientTransform="matrix(0 -117.8383 -117.8383 0 142494.9062 -291862.5)">
			<stop  offset="0" style="stop-color:#F7941D"/>
			<stop  offset="1" style="stop-color:#F9ED32"/>
		</linearGradient>
		<rect x="4.049" clip-path="url(#SVGID_40_)" fill="url(#SVGID_42_)" width="477.176" height="117.839"/>
	</g>
</g>
<g>
	<polygon fill="#D0392B" points="90.711,153.088 79.688,152.535 90.68,206.987 113.068,201.051 103.553,153.733 	"/>
	<polygon fill="#A00000" points="97.959,151.011 113.418,203.297 129.186,199.066 137.5,152.858 	"/>
	<path fill="#0056A3" d="M103.043,163.989c-0.203,3.815-0.447,9.295-0.684,16.58l-0.254,8.908c-0.039,1.406-0.074,2.863-0.107,4.368
		c-0.041,0.031-0.07,0.065-0.102,0.123c0.098,0.2-0.131,0.184-0.078,0.348c-0.104,0.033-0.02,0.17-0.043,0.257
		c0.125,0.065,0.041,0.315,0.135,0.45l0.057,0.326c-0.029-0.014-0.039,0.019-0.051,0.037l0.01,0.084
		c-0.127-0.038-0.111,0.111-0.164,0.145c0.053,0.055,0.107,0.011,0.176-0.002c-0.01,0.027,0.008,0.048,0.02,0.06
		c-0.006,0.441-0.016,0.884-0.025,1.335c-0.055,0.104-0.129,0.204-0.307,0.201l0.008,0.087c-0.027,0.006-0.039,0.021-0.049,0.04
		c-0.035,0.224-0.312,0.361-0.139,0.635c0.133,0.039,0.104,0.437,0.354,0.216c0.039-0.026,0.07-0.056,0.111-0.077
		c-0.004,0.06-0.004,0.122-0.004,0.179c-0.088,0.017-0.152,0.056-0.168,0.158c-0.025,0.181-0.297,0.249-0.182,0.517
		c-0.018,0.08-0.152,0.1-0.09,0.207c-0.105,0.031-0.021,0.163-0.029,0.255c-0.02,0.225,0.268,0.011,0.301,0.181l0.012,0.128
		c-0.109,0.033-0.025,0.164-0.035,0.255c0.02,0.042,0.068,0.003,0.061,0.079c0.049,0.089-0.07,0.112-0.08,0.16l-0.047,0.01
		c-0.115-0.056-0.271-0.028-0.35-0.146c-0.025-0.125-0.006-0.188,0.057-0.258c0.094-0.013,0.102-0.074,0.135-0.155
		c-0.135-0.004-0.225-0.13-0.348-0.142v-0.029c-0.113-0.038-0.227,0.013-0.332,0.029c0.025-0.264-0.23-0.19-0.211-0.428l0.021-0.006
		l-0.016-0.534c0.021-0.006,0.031-0.019,0.041-0.054l-0.006-0.086c0.045,0.007,0.055-0.024,0.064-0.04
		c-0.064-0.094,0.059-0.114,0.07-0.158c0.055-0.101,0.201-0.069,0.23-0.209c-0.061-0.046-0.078-0.102-0.072-0.189
		c0.113,0.023,0.096-0.105,0.146-0.16c0.039-0.14-0.092-0.127-0.125-0.18l-0.049,0.008c-0.074-0.23-0.201-0.404-0.391-0.488
		c-0.012-0.129-0.033-0.228,0.066-0.285c0.215-0.131,0.252,0.127,0.414,0.006l-0.062-0.073c0.033-0.121,0.195-0.078,0.299-0.113
		c-0.008,0.028,0.018,0.041,0.033,0.052l0.078-0.015c-0.029,0.123,0.09,0.113,0.154,0.089c0.029-0.002,0.096,0.01,0.105-0.046
		c-0.121-0.11-0.311-0.164-0.367-0.333c-0.078,0.014-0.078-0.128-0.176-0.053c0.008-0.059-0.047-0.06-0.086-0.044l-0.078,0.016
		c-0.008-0.058-0.045-0.063-0.086-0.058l-0.086,0.016c0.006-0.031-0.023-0.04-0.035-0.052c-0.098-0.011-0.207-0.078-0.268-0.156
		c0.037-0.157-0.078-0.131-0.123-0.199c0.051-0.024,0.023-0.135,0.135-0.112c0.053-0.141-0.084-0.349,0.094-0.427l-0.006-0.086
		c0.025,0.009,0.037-0.019,0.047-0.036l-0.006-0.091c0.027-0.002,0.039-0.022,0.051-0.034l-0.008-0.103
		c0.1-0.033,0.021-0.167,0.041-0.242c-0.195-0.125-0.146-0.473-0.332-0.586l-0.006-0.1c0.025,0.006,0.039-0.022,0.045-0.039
		c-0.033-0.096,0.084-0.157,0.113-0.227c0.025-0.003,0.08-0.01,0.092-0.043c0.088-0.043,0.203-0.126,0.318-0.193
		c-0.012-0.084-0.096-0.022-0.08-0.127c0.059-0.076,0.109-0.124,0.154-0.193c-0.062-0.105-0.174-0.158-0.293-0.181
		c-0.053-0.12-0.176-0.168-0.143-0.381c0.043,0.006,0.047-0.05,0.045-0.093c0.023-0.156-0.117-0.101-0.078-0.271
		c0.049-0.064,0.176-0.119,0.137-0.272l-0.113-0.063c0.025-0.024,0.068-0.105,0.035-0.158c0.168-0.085,0.277-0.225,0.357-0.372
		l-0.02-0.187c0.145-0.07,0.105,0.401,0.043,0.131c-0.016-0.038-0.256,0.125-0.301,0.106c-0.123,0.072,0-0.184,0.311-0.39
		c-0.004-0.058-0.055-0.067-0.096-0.046l-0.076,0.016c0.012-0.028-0.02-0.053-0.031-0.066c-0.092,0.075-0.102-0.058-0.154-0.058
		c-0.006-0.061,0.016-0.121-0.037-0.142l-0.08,0.015l-0.014-0.1c0.137-0.024,0.285-0.02,0.383-0.099l-0.008-0.088
		c0.053,0.001,0.059-0.056,0.059-0.094c-0.021-0.041,0-0.107-0.043-0.128c-0.145-0.003-0.129,0.173-0.234,0.177
		c-0.004-0.034-0.018-0.043-0.031-0.054l-0.09,0.015c0.008-0.048-0.02-0.051-0.035-0.067l-0.076,0.016
		c-0.016-0.145-0.107-0.156-0.086-0.322c0.027,0.008,0.039-0.022,0.051-0.04l-0.01-0.088c0.029,0.012,0.045-0.018,0.051-0.038
		l-0.004-0.084l0.023-0.004c0.029-0.112,0.02-0.254-0.025-0.332l-0.033,0.004c-0.047-0.107,0.059-0.115,0.066-0.17
		c0.029-0.008,0.082,0,0.092-0.047c-0.076-0.06-0.117-0.188-0.24-0.149l-0.02-0.201c0.051-0.009,0.061-0.053,0.043-0.095
		l-0.008-0.099c0.053,0.001,0.061-0.056,0.047-0.098l-0.008-0.083c0.023-0.012,0.037-0.022,0.047-0.043
		c0.004-0.219-0.266-0.123-0.223-0.396l-0.025,0.002c0.1-0.05,0.014-0.176,0.025-0.281l0.029-0.009
		c0.043-0.106,0.004-0.232-0.006-0.363c0.027,0.007,0.039-0.023,0.049-0.039l-0.006-0.088c0.027,0.012,0.037-0.016,0.049-0.039
		l-0.01-0.086c0.07-0.139,0.037-0.342,0.186-0.441l-0.303-0.282c0.047-0.069,0.133-0.126,0.094-0.251
		c-0.082-0.182-0.148-0.341-0.215-0.519c0.061-0.052,0.074-0.161,0.186-0.152l0.002,0.029c0.082,0.034,0.184-0.02,0.279-0.02
		c-0.096-0.201,0.412-0.468-0.016-0.464c-0.008-0.073-0.098-0.029-0.07-0.137c0.033-0.003,0.043-0.023,0.055-0.038
		c-0.012-0.085-0.066-0.033-0.09-0.115c-0.078,0.015-0.045,0.109-0.141,0.097c0.01-0.057-0.045-0.062-0.084-0.053l-0.094,0.014
		c0.012-0.031-0.033-0.037-0.047-0.051c-0.092,0.056-0.084-0.062-0.135-0.066c-0.004-0.094,0.143-0.125,0.098-0.266h0.025
		c0.133-0.407-0.217-0.451-0.111-0.903c0.025,0.012,0.039-0.02,0.051-0.034l-0.055-0.081c0.025,0.013,0.037-0.021,0.049-0.036
		c0.043-0.235,0.324-0.288,0.258-0.609c0.027,0.007,0.039-0.025,0.053-0.037c0.049-0.142,0.146-0.252,0.025-0.37
		c0.008-0.16-0.152-0.227-0.111-0.437c0.01-0.147,0.293-0.004,0.195-0.184l-0.08,0.009c-0.043-0.127-0.156-0.196-0.131-0.375
		c0.021,0,0.037-0.016,0.049-0.036v-0.026c-0.111-0.074-0.352,0.087-0.391-0.085c-0.043-0.094,0.051-0.121,0.076-0.181
		c0.066-0.006,0.172-0.006,0.143-0.102c-0.012-0.045,0.006-0.105-0.033-0.13l-0.027,0.002c-0.016-0.156,0.227-0.071,0.205-0.228
		c-0.133,0.017-0.189-0.121-0.219-0.222c0.062-0.117,0.055-0.311,0.172-0.379c0.047-0.082,0.021-0.167,0.018-0.252
		c0.053-0.005,0.062-0.053,0.062-0.095l-0.004-0.099c0.029,0.011,0.041-0.018,0.053-0.039c-0.066-0.045-0.088-0.193-0.234-0.144
		c0.014-0.032,0.092-0.041,0.08-0.053c-0.096,0.053-0.1-0.075-0.152-0.087c0-0.025-0.24-7.038-0.24-7.038
		c0.064-0.13,0-1.052,0-1.052c0.012-0.03-0.012-0.046-0.02-0.056c-0.104,0.042-0.092-0.075-0.127-0.085
		c0.008-0.161-0.053-0.233-0.098-0.331c-0.004-0.133,0.154-0.133,0.141-0.279c0,0,0.055-0.203,0.076-0.298
		c-0.076-0.061-0.188-0.706-0.09-0.781c0.068,0,0.17,0.012,0.152-0.106c-0.027-0.141-0.139-0.225-0.084-0.446
		c0.055,0,0.072-0.04,0.074-0.083c0.051-0.132-0.07-0.128-0.107-0.187h-0.055c0.02-0.058-0.033-0.075-0.072-0.058l-0.08,0.001
		c-0.018-0.146,0.064-0.348-0.092-0.36c-0.086,0.042,0.113-0.275,0.148-0.391c0,0,0.184-0.285,0.15-0.274h-0.072
		c0-0.032-0.016-0.045-0.025-0.056c-0.105-0.045-0.203-0.119-0.24-0.219c0.225,0.057,0.064-0.621-0.006-0.632l0.006-0.088
		c0.094-0.013,0.041-0.16,0.08-0.246c-0.047-0.13-0.102-0.258-0.148-0.389c0.01-0.131,0.197-0.146,0.148-0.333h0.02l-0.076-1.322
		c0.037,0.022-0.059-0.233-0.055-0.275l0.01-0.105c0.096-0.027,0.16-0.603,0.104-0.662l0.012-0.17
		c0.111-0.018-0.051-0.164-0.029-0.249h0.023c0.062-0.087,0.029-0.115,0.037-0.218l-0.061-0.267
		c0.074-0.103-0.221-0.639-0.096-0.626c0.01-0.043,0.035-0.099-0.02-0.13h-0.021c0,0,0.105-0.275,0.051-0.303
		c0,0,0.016,0.158,0.029,0.101c-0.066-0.158-0.076-0.349-0.115-0.52c0.141-0.087,0.037-0.023,0.027-0.252
		c-0.062-0.204-0.027-0.273-0.078-0.474c0.037-0.085-0.094-1.193-0.102-1.441l4.352-0.421L103.043,163.989"/>
	<path fill="#0056A3" d="M101.66,200.888c-0.102,0-0.211-0.018-0.293-0.057c-0.109-0.011-0.412-0.071-0.615-0.375
		c-0.045-0.068-0.078-0.144-0.094-0.224c-0.01-0.044-0.016-0.087-0.021-0.128c-0.072-0.027-0.139-0.063-0.189-0.111
		c-0.055-0.053-0.113-0.113-0.164-0.177c-0.252-0.203-0.363-0.456-0.34-0.758c0.004-0.034,0.01-0.068,0.016-0.101l-0.01-0.365
		c-0.006-0.131,0.031-0.256,0.094-0.362c0.018-0.043,0.035-0.083,0.061-0.12c0.037-0.116,0.096-0.223,0.174-0.304
		c0.002-0.029,0.004-0.057,0.01-0.084c-0.002-0.006-0.004-0.012-0.006-0.017c-0.219-0.098-0.4-0.396-0.418-0.634
		c-0.027-0.259,0.01-0.467,0.104-0.63c-0.023-0.025-0.045-0.05-0.066-0.077c-0.037-0.05-0.068-0.106-0.09-0.165
		c-0.023-0.022-0.041-0.044-0.055-0.065c-0.107-0.159-0.141-0.356-0.09-0.541c0.021-0.076,0.055-0.146,0.1-0.209l0.018-0.031
		c0.012-0.218,0.08-0.375,0.168-0.489c0.004-0.012,0.008-0.025,0.014-0.038c-0.061-0.114-0.094-0.223-0.117-0.301
		c-0.002-0.008-0.002-0.012,0.002-0.012l0,0c-0.115-0.114-0.184-0.269-0.191-0.435c-0.004-0.083,0.008-0.173,0.033-0.26
		c0.014-0.154,0.078-0.328,0.24-0.508c0.027-0.058,0.059-0.104,0.094-0.139c-0.072-0.095-0.203-0.323-0.164-0.662
		c-0.059-0.166-0.047-0.326-0.02-0.451c0.014-0.057,0.033-0.112,0.061-0.165c0-0.014-0.002-0.029-0.002-0.042
		c-0.023-0.103-0.021-0.212,0.008-0.315c0.004-0.016,0.01-0.031,0.014-0.047c-0.021-0.127-0.002-0.253,0.047-0.375
		c-0.084-0.088-0.146-0.196-0.162-0.313c-0.008-0.064-0.008-0.13,0.002-0.197c-0.051-0.073-0.084-0.153-0.094-0.239
		c-0.02,0.02-0.125-0.171-0.084-0.479c0.014-0.093,0.043-0.18,0.092-0.258c-0.029-0.081-0.041-0.176-0.037-0.272
		c-0.049-0.082-0.078-0.175-0.086-0.271l-0.02-0.201c-0.012-0.116,0.008-0.228,0.051-0.327c-0.105-0.143-0.146-0.294-0.156-0.427
		c-0.021-0.104-0.016-0.209,0.01-0.306c-0.004-0.071-0.008-0.143-0.004-0.176c0.01-0.069,0.027-0.134,0.055-0.193l-0.035-0.05
		c-0.01-0.142,0.025-0.281,0.1-0.397c0.008-0.065,0.021-0.128,0.041-0.177c-0.174-0.185-0.223-0.45-0.135-0.681
		c-0.039-0.092-0.08-0.195-0.123-0.305c-0.08-0.214-0.043-0.451,0.092-0.628c-0.029-0.025-0.057-0.053-0.084-0.086
		c-0.121-0.115-0.197-0.276-0.203-0.455c-0.002-0.109,0.043-0.259,0.105-0.384c0.006-0.044,0.018-0.086,0.031-0.128
		c-0.088-0.118-0.207-0.402-0.109-0.823c0.01-0.043,0.023-0.084,0.041-0.123l0,0c0.043-0.238,0.164-0.4,0.246-0.499
		c0-0.106,0.029-0.211,0.08-0.305c-0.066-0.129-0.148-0.333-0.107-0.604c-0.266-0.158-0.338-0.434-0.35-0.48
		c-0.041-0.188,0.029-0.479,0.15-0.657c0.004-0.036,0.01-0.076,0.021-0.116c-0.006-0.018-0.012-0.037-0.016-0.056
		c-0.045-0.162-0.027-0.335,0.053-0.483c0.016-0.077,0.043-0.197,0.109-0.32c-0.033-0.049-0.062-0.102-0.082-0.157
		c-0.068-0.101-0.107-0.22-0.111-0.347c-0.002-0.136-0.24-7.031-0.24-7.031c-0.004-0.105,0.02-0.211,0.064-0.305
		c-0.008-0.051-0.025-0.269-0.041-0.454c-0.018-0.026-0.037-0.054-0.053-0.085c-0.08-0.115-0.123-0.255-0.117-0.402
		c-0.037-0.084-0.096-0.199-0.098-0.29c-0.004-0.189,0.057-0.36,0.176-0.512l0.008-0.028c-0.098-0.321-0.094-0.66-0.094-0.681
		c0.002-0.171,0.037-0.319,0.102-0.44c-0.006-0.039-0.01-0.081-0.01-0.126c-0.119-0.101-0.205-0.235-0.223-0.387
		c-0.002-0.022-0.004-0.044-0.006-0.068c-0.223-0.318-0.059-0.666,0.035-0.851c-0.051-0.07-0.094-0.146-0.123-0.227
		c-0.066-0.179-0.051-0.376,0.037-0.54c-0.059-0.107-0.09-0.23-0.082-0.359c0.004-0.082,0.025-0.166,0.057-0.245l-0.084-0.229
		c-0.029-0.081-0.039-0.168-0.033-0.254c0.006-0.108,0.074-0.27,0.152-0.397c0-0.006,0.004-0.012,0.004-0.018l-0.068-1.158
		c0-0.009,0-0.018,0-0.027c-0.023-0.108-0.055-0.276-0.053-0.321c0.004-0.121,0.045-0.253,0.111-0.372l-0.008-0.004
		c0.012-0.038,0.025-0.132,0.029-0.195c-0.018-0.067-0.023-0.135-0.02-0.204l0.01-0.142c-0.031-0.108-0.049-0.241-0.012-0.393
		c0.006-0.024,0.016-0.049,0.023-0.071l-0.025-0.108c-0.016-0.066-0.02-0.133-0.016-0.198c-0.008-0.029-0.02-0.059-0.029-0.09
		c-0.047-0.14-0.109-0.326-0.094-0.519c-0.02-0.108-0.01-0.221,0.029-0.327h0.002c-0.016-0.069-0.025-0.136-0.037-0.196
		c-0.025-0.112-0.025-0.249-0.002-0.384c-0.002-0.014-0.004-0.029-0.006-0.045c-0.037-0.142-0.047-0.246-0.053-0.325
		c-0.02-0.085-0.027-0.216-0.02-0.334l-0.006-0.001c0.002-0.127-0.033-0.466-0.062-0.767c-0.021-0.255-0.043-0.487-0.047-0.588
		c-0.01-0.344,0.25-0.638,0.592-0.672l4.354-0.42c0.191-0.021,0.379,0.045,0.518,0.178c0.139,0.131,0.211,0.317,0.201,0.507
		l-0.297,5.933v0.002c-0.172,3.255-0.43,8.772-0.682,16.567l-0.256,8.905c-0.035,1.404-0.072,2.86-0.105,4.365
		c-0.004,0.11-0.033,0.215-0.086,0.309c-0.014,0.092-0.047,0.191-0.107,0.291c0.039,0.122,0.045,0.233,0.051,0.291v0.009
		c0.02,0.047,0.035,0.096,0.045,0.147l0.057,0.327c0.02,0.101,0.012,0.204-0.016,0.299c0.01,0.048,0.016,0.098,0.016,0.148
		l-0.027,1.341c-0.002,0.102-0.027,0.202-0.074,0.292c-0.061,0.113-0.129,0.203-0.201,0.276c0.172,0.131,0.268,0.34,0.254,0.558
		c-0.01,0.177-0.094,0.401-0.219,0.565c-0.035,0.097-0.088,0.178-0.133,0.24c0,0.051-0.004,0.1-0.016,0.15
		c0,0.004-0.002,0.009-0.002,0.013c0.141,0.154,0.18,0.332,0.188,0.367c0.004,0.021,0.018,0.17,0.021,0.192
		c0.004,0.06,0.002,0.12-0.008,0.177c0.09,0.245,0.061,0.555-0.195,0.795c-0.096,0.114-0.227,0.195-0.377,0.224
		C101.775,200.883,101.719,200.888,101.66,200.888 M100.166,199.596c0.018,0.072,0.053,0.139,0.094,0.191
		C100.217,199.727,100.184,199.663,100.166,199.596 M102.092,199.416v0.002c0-0.011-0.002-0.023-0.002-0.034
		C102.09,199.395,102.09,199.406,102.092,199.416 M102.029,198.829L102.029,198.829L102.029,198.829z M100.139,198.071
		c0,0,0,0.001-0.002,0.002C100.139,198.072,100.139,198.072,100.139,198.071 M100.141,198.069L100.141,198.069z M100.141,198.066
		L100.141,198.066L100.141,198.066z M100.277,197.905c-0.051,0.04-0.094,0.087-0.129,0.141c0.014-0.017,0.029-0.035,0.045-0.05
		c0.025-0.025,0.055-0.049,0.086-0.072C100.279,197.918,100.277,197.912,100.277,197.905 M100.277,197.81
		c-0.016,0.017-0.033,0.038-0.047,0.061c0.012-0.019,0.027-0.038,0.047-0.058V197.81z M100.461,197.807
		c0.002,0.002,0.002,0.005,0.004,0.008l0.027-0.017C100.48,197.801,100.471,197.803,100.461,197.807 M102.035,196.098v0.003
		c0.016-0.005,0.029-0.009,0.045-0.014l-0.002-0.002C102.064,196.089,102.049,196.094,102.035,196.098 M99.785,195.811l-0.002,0.001
		L99.785,195.811z M100.299,195.766h0.016H100.299z M101.102,195.536c0.004,0.001,0.006,0.002,0.008,0.002
		c0.004-0.029,0.01-0.059,0.016-0.087c-0.004,0.01-0.01,0.02-0.018,0.029c-0.002,0.004-0.004,0.008-0.006,0.011
		c0,0-0.002,0.001-0.002,0.002C101.102,195.507,101.102,195.522,101.102,195.536 M101.197,195.242
		c-0.004,0.022-0.01,0.045-0.016,0.066c0.01-0.019,0.021-0.038,0.033-0.055c0.014-0.029,0.029-0.056,0.043-0.082
		c-0.006-0.019-0.012-0.037-0.016-0.057c-0.004,0.011-0.01,0.021-0.014,0.03C101.219,195.178,101.209,195.211,101.197,195.242
		 M102.449,194.648c0,0,0,0.001,0,0.002C102.449,194.649,102.449,194.648,102.449,194.648 M99.971,194.61c0,0,0.002,0,0.004,0
		C99.973,194.61,99.973,194.61,99.971,194.61 M100.09,194.495l0.014,0.003c0.033-0.054,0.076-0.103,0.123-0.143l0.002-0.011
		C100.172,194.387,100.125,194.439,100.09,194.495 M101.111,194.173c0.01,0.009,0.018,0.018,0.025,0.028
		c0.012-0.039,0.023-0.075,0.037-0.108c0.008-0.024,0.016-0.048,0.021-0.072c-0.041,0.026-0.076,0.049-0.109,0.069
		c0.006,0.02,0.014,0.038,0.02,0.056C101.109,194.159,101.111,194.168,101.111,194.173 M99.934,193.443c-0.002,0-0.002,0-0.002,0
		S99.932,193.443,99.934,193.443 M101.213,192.475c0.061,0.041,0.113,0.085,0.156,0.129c0.006-0.249,0.012-0.497,0.018-0.743
		c-0.031,0.026-0.064,0.05-0.1,0.071c-0.002,0.001-0.004,0.003-0.006,0.005c0.008,0.124-0.01,0.263-0.082,0.407
		C101.207,192.389,101.213,192.433,101.213,192.475 M99.988,192.063l0.002,0.001L99.988,192.063z M99.938,191.556
		c-0.035,0.08-0.045,0.166-0.037,0.248c0-0.083,0.012-0.165,0.039-0.24C99.939,191.561,99.938,191.559,99.938,191.556
		 M99.918,190.889c0,0.008,0,0.018,0.004,0.031C99.92,190.909,99.92,190.899,99.918,190.889 M101.064,189.593
		c0.02,0.007,0.041,0.015,0.059,0.025c0.127,0.062,0.24,0.19,0.312,0.332c0.004-0.164,0.01-0.327,0.014-0.49l0.254-8.909
		c0.254-7.808,0.512-13.333,0.684-16.595l0.26-5.174l-2.951,0.286c0.039,0.421,0.057,0.654,0.055,0.809
		c0.016,0.081,0.02,0.146,0.025,0.21c0.018,0.056,0.045,0.221,0.047,0.278c0.061,0.135,0.057,0.282,0.008,0.418
		c0.002,0.007,0.002,0.013,0.004,0.02c0.023,0.052,0.041,0.11,0.049,0.177c0.031,0.108,0.035,0.222,0.01,0.332
		c-0.006,0.028-0.014,0.055-0.023,0.081c0.006,0.058,0.006,0.115,0,0.17c0.059,0.181,0.107,0.357,0.107,0.527l0.033,0.151
		c0.016,0.067,0.021,0.135,0.016,0.204c0.004,0.059,0.004,0.129-0.01,0.21c0.025,0.107,0.031,0.239-0.016,0.381
		c0.029,0.246-0.02,0.505-0.066,0.679c-0.012,0.038-0.021,0.075-0.035,0.11c0.02,0.075,0.037,0.175,0.029,0.284l0.072,1.244
		c0.004,0.061,0,0.122-0.014,0.18c-0.008,0.086-0.031,0.176-0.078,0.268l0.035,0.089c0.043,0.122,0.049,0.253,0.02,0.377
		c-0.004,0.052-0.01,0.101-0.02,0.146c0.035,0.114,0.072,0.277,0.076,0.451c0.031,0.026,0.061,0.054,0.086,0.084
		c0.281,0.361,0.092,0.703-0.088,0.984c0,0.001-0.002,0.003-0.002,0.005s0.002,0.004,0.002,0.007
		c0.375,0.255,0.389,0.649,0.285,0.917l-0.004-0.002c-0.002,0.004-0.004,0.007-0.004,0.01c0.02,0.029,0.037,0.086,0.051,0.153
		c0.037,0.194-0.025,0.469-0.152,0.625c0.004,0.023,0.008,0.045,0.014,0.063c0.082,0.141,0.109,0.311,0.07,0.476l-0.061,0.239
		c-0.006,0.073-0.021,0.144-0.049,0.212c0.084,0.113,0.137,0.261,0.148,0.406h0.004c0.047,0.668,0.035,0.989,0.004,1.167
		c0.152,4.422,0.207,6.031,0.227,6.621c0.027,0.029,0.051,0.06,0.07,0.093c0.021,0.025,0.043,0.052,0.064,0.081
		c0.195,0.203,0.244,0.517,0.102,0.773c-0.006,0.011-0.012,0.023-0.02,0.033c0.002,0.11-0.012,0.247-0.078,0.391
		c0.049,0.079,0.082,0.167,0.094,0.261c0.018,0.137-0.002,0.298-0.078,0.445c0.07,0.107,0.109,0.232,0.109,0.364v0.005
		c0.031,0.032,0.059,0.068,0.08,0.108c0.105,0.194,0.125,0.508,0.02,0.703c-0.008,0.014-0.016,0.028-0.023,0.041
		c0.076,0.185,0.094,0.427-0.041,0.735c-0.01,0.018-0.02,0.039-0.031,0.061c-0.031,0.309-0.199,0.508-0.287,0.608
		c-0.002,0.047-0.01,0.093-0.021,0.137c0.055,0.112,0.123,0.266,0.139,0.464c0.074,0.038,0.141,0.091,0.195,0.155
		c0.074,0.065,0.135,0.144,0.178,0.235c0.084,0.067,0.139,0.147,0.178,0.219c0.184,0.351,0.012,0.657-0.082,0.796
		c-0.012,0.098-0.043,0.195-0.098,0.281c-0.045,0.071-0.104,0.133-0.17,0.182c0.014,0.064,0.02,0.125,0.021,0.184
		c0.146,0.137,0.221,0.333,0.205,0.532c-0.012,0.137-0.066,0.265-0.152,0.368c-0.01,0.048-0.02,0.095-0.033,0.142
		c-0.008,0.096-0.027,0.195-0.061,0.265c0.008,0.115,0.008,0.236-0.025,0.363c0.172,0.189,0.207,0.399,0.205,0.561
		c-0.002,0.059-0.01,0.118-0.027,0.175c-0.002,0.04-0.008,0.08-0.018,0.122c0.176,0.152,0.219,0.36,0.168,0.594
		c-0.012,0.062-0.037,0.122-0.07,0.18C101.064,189.523,101.066,189.558,101.064,189.593 M99.771,189.549
		c-0.004,0.008-0.008,0.016-0.012,0.024c0.002-0.002,0.004-0.005,0.006-0.007c0.004-0.005,0.006-0.011,0.01-0.016L99.771,189.549z
		 M99.758,189.545c-0.002,0.008-0.004,0.017-0.004,0.026c0.002-0.008,0.006-0.017,0.008-0.024L99.758,189.545z M99.678,186.867
		c-0.006,0.009-0.012,0.018-0.016,0.027l0.008,0.004c0.006-0.008,0.012-0.015,0.018-0.023L99.678,186.867z M100.381,186.603
		c0.027,0.007,0.057,0.016,0.082,0.028c-0.027-0.013-0.055-0.023-0.084-0.031L100.381,186.603z M99.709,184.452L99.709,184.452
		L99.709,184.452z M99.709,184.45L99.709,184.45L99.709,184.45z M99.709,184.447L99.709,184.447L99.709,184.447z M99.711,184.446
		L99.711,184.446L99.711,184.446z M99.236,180.754c0,0,0,0.002,0,0.003C99.236,180.756,99.236,180.755,99.236,180.754
		 M99.549,169.258h0.016H99.549z M98.896,168.561c0.014,0.05,0.031,0.098,0.057,0.144c0-0.003,0-0.005,0-0.007
		c-0.02-0.043-0.037-0.087-0.051-0.133C98.9,168.564,98.898,168.562,98.896,168.561 M98.885,168.51
		c0.002,0.001,0.006,0.002,0.006,0.004c-0.018-0.098-0.014-0.199,0.02-0.296C98.877,168.312,98.869,168.413,98.885,168.51
		 M100.02,167.951c0.053,0.043,0.098,0.094,0.131,0.15c-0.045-0.074-0.098-0.125-0.133-0.154
		C100.018,167.948,100.018,167.95,100.02,167.951 M98.715,166.839c-0.006,0.027-0.01,0.049-0.01,0.063l0.041-0.026
		C98.734,166.864,98.725,166.851,98.715,166.839 M103.043,163.989h0.014H103.043z"/>
	<path fill="#0056A3" d="M117.822,172.078c-1.553-0.38-5.67,0.455-7.424,1.317c0.74-0.505,1.377-1.137,2.227-1.645
		c-0.102-0.252-0.393-0.954-0.373-0.986h0.373c-0.352,0.483,0.268,0.278,0.371,0.331c0.211-0.358-0.176-0.617,0-0.986
		c0.211-0.503,0.697-0.482,1.115-1.64c1.295-3.726,0.301-4.199-3.34-5.251c-0.039,0.037-0.373,0.653-0.373,0.653
		c-0.674,0.093-1.123-0.653-1.117-0.653c-0.498,0.15-0.598,0.93-0.74,0.983c-0.799,0.246-0.836-0.599-1.852-0.33v0.656
		c-0.244,0.04-2.607,0.328-2.607,0.328c-0.092,0.033-0.617,0.121-0.742,0.224c-0.6,0.441-1.121,0.978-1.848,1.419
		c0,0-1.006-0.105-1.365,0.366l-0.025-0.029c0,0-0.518-0.149-0.801,0.077c-0.287,0.227-0.258,0.651-0.412,0.926
		c-0.031,0.058-0.047,0.112-0.051,0.16l-0.705,0.193c0.037,0-0.787,0.168,0.102,1.165c0.697-0.289,1.979-1.007,2.592-1.111
		c0.541-0.104,1.996,0.757,2.52,0.551c0.012-0.01,0-0.944,0-0.985c0.238-0.05,1.588,0.083,1.854,0
		c0.396-0.143,1.463-1.201,1.859-1.313c0.588-0.185,1.113,0.33,1.113,0.33c0.463,0.007,1.703-0.453,2.6-0.658
		c-0.363-0.699,0.994,0.278,1.109,0.328c-0.219,0.346,0.166,0.606,0,0.987c-0.115,0.244-0.938,0.409-1.109,0.652
		c-0.258,0.332,0.197,0.619,0,0.989h-0.742c-0.117,0.387-0.154,0.658,0.369,0.658c0,0-0.557,0.715-0.742,1.311
		c-0.162-0.053-0.779-0.617-1.115-0.331c0,0-0.463,1.408-0.74,1.642h-0.742c-0.668,0.195-3.9,3.286-4.455,3.94l-0.549,0.544
		c-0.117,0-0.484,0.044-0.562,0.115c-0.295,0.23-0.088,1.069-0.371,1.315c-0.396,0.309-2.232,0.9-2.602,1.312
		c-0.199,0.204,0.139,0.72,0,0.986h-0.742c-0.211,0.594-0.057,0.8-0.371,1.313c-0.141-0.064-0.604-0.441-0.744-0.328
		c0.141,0.25,0,1.024,0,1.317c0.594,0.283,1.533,0.588,2.227,0.977c0.035-0.037,0.348-0.954,0.371-0.977c0.107,0,1.033,0.06,1.113,0
		c0.279-0.26,0.076-0.942,0.389-1.185c0.184-0.169,0.816-0.379,1.1-0.461c1.172-0.409,1.621-2.319,2.594-2.954
		c0.607-0.412,1.129,0,1.863-0.329c0.33-0.167,0.389-0.8,0.74-0.986c0.6-0.337,1.625-0.441,2.223-0.659v-0.328
		c0.908-0.208,0.506,0.516,1.117,0.328c0.164-0.048,0.578-0.955,0.74-0.983c0.803-0.213,1.113,0.432,1.486,0.329v-0.658
		c1.217-0.151,1.877-0.151,3.34-0.33c0.127-0.439-0.334-0.687,0.373-0.656c0.146,0,1.295,0.926,1.484,0.986
		c0.137-0.48,0.346,1.22,0.373,1.312c-0.092,0.03-0.748,0.322-0.748,0.331v0.654c0.469-0.029,0.545,0.854,0.375,1.316h-0.744
		c-0.232,0.36,0.197,0.607,0,0.985h-0.74c-0.076,0.212-0.133,0.4-0.186,0.575l-0.055,0.018l-0.051,0.382
		c-0.049,0.204-0.096,0.398-0.15,0.614l-0.438,0.577l-0.748,0.459h-0.6c-0.168,0.232-0.006,0.714,0.014,1.072l-0.52,0.61
		l-0.453,0.931l-1.021,0.16l-0.852,1.284l-0.873-0.36l-0.084,1.286c-0.061-0.041-0.15-0.065-0.293-0.054c0,0-0.01,0.078-0.004,0.194
		l-0.873,0.291l-0.699,0.674l-0.641,0.75l-0.785,0.084l0.055,0.507l-0.592,0.653l-0.203-0.473l-0.506,1.009l0.674,0.194l0.572,0.008
		l0.59-0.434l1.158-1.047l0.92-0.335l0.074-0.891l1.127,0.151l0.051-0.008c0.316,0.016,0.738-0.079,1.305-0.343
		c0.014-0.01,0-0.942,0-0.984c0.758-0.391,1.441-0.553,2.229-0.988c-0.039-0.109-0.109-0.245-0.184-0.389l0.709-0.374l0.898-0.584
		l0.797-0.606l0.268-1.045l0.205-0.26c0.355-0.178,0.617-0.32,0.648-0.351c0.018-0.029-0.023-0.146-0.078-0.302l1.191-0.438
		l-0.654-0.97c0.266,0.089,0.5,0.349,0.654,0.395c0.359-0.851,0.359-1.347,0.74-2.297c0.129,0,1.057,0.07,1.111,0
		C119.074,178.034,123.514,173.474,117.822,172.078"/>
	<path fill="#0056A3" d="M107.027,191.732h-0.008l-0.572-0.007c-0.061-0.001-0.117-0.01-0.174-0.026l-0.676-0.195
		c-0.186-0.053-0.34-0.188-0.418-0.367c-0.078-0.178-0.072-0.382,0.016-0.556l0.506-1.009c0.113-0.229,0.355-0.365,0.604-0.362
		c0.023,0.001,0.045,0.002,0.068,0.005c-0.01-0.162,0.041-0.321,0.143-0.448c0.109-0.136,0.27-0.223,0.441-0.241l0.525-0.056
		l0.473-0.552l0.74-0.719c0.07-0.069,0.154-0.12,0.248-0.151l0.506-0.168c0.059-0.111,0.146-0.203,0.256-0.265l0.047-0.704
		c0.014-0.21,0.129-0.402,0.307-0.513c0.18-0.113,0.402-0.13,0.598-0.051l0.375,0.155l0.553-0.835
		c0.102-0.153,0.262-0.257,0.445-0.286l0.684-0.106l0.301-0.622c0.025-0.05,0.057-0.097,0.092-0.139l0.332-0.391
		c0-0.012-0.002-0.022-0.004-0.034c-0.059-0.372-0.133-0.834,0.145-1.217c0.125-0.17,0.322-0.271,0.533-0.271h0.414l0.484-0.298
		l0.281-0.37l0.156-0.794c0.016-0.121,0.064-0.233,0.139-0.325c0.041-0.133,0.084-0.264,0.133-0.403
		c0.096-0.261,0.342-0.434,0.619-0.434h0.027c-0.027-0.194,0-0.433,0.162-0.684c0.121-0.188,0.328-0.301,0.551-0.301h0.162
		c-0.002-0.015-0.002-0.028-0.004-0.04c-0.088-0.031-0.17-0.078-0.238-0.143c-0.131-0.124-0.205-0.297-0.205-0.478v-0.655
		c0-0.214,0-0.452,0.668-0.752c-0.023-0.148-0.045-0.273-0.066-0.372c-0.131-0.08-0.314-0.211-0.633-0.442
		c-0.064-0.048-0.131-0.096-0.193-0.143c-0.094,0.211-0.291,0.36-0.523,0.389c-0.768,0.093-1.316,0.139-1.84,0.181
		c-0.303,0.026-0.598,0.049-0.924,0.083v0.072c0,0.295-0.197,0.555-0.482,0.633c-0.418,0.115-0.746-0.077-0.965-0.203
		c-0.16-0.093-0.256-0.145-0.373-0.146c-0.045,0.068-0.092,0.149-0.143,0.23c-0.248,0.406-0.412,0.674-0.734,0.769
		c-0.35,0.108-0.65,0.068-0.895-0.116c-0.055,0.043-0.115,0.079-0.182,0.103c-0.258,0.093-0.584,0.17-0.928,0.248
		c-0.43,0.097-0.918,0.208-1.199,0.366c-0.014,0.018-0.076,0.143-0.117,0.226c-0.123,0.25-0.291,0.593-0.65,0.774
		c-0.516,0.231-0.941,0.218-1.254,0.204c-0.295-0.008-0.404-0.006-0.535,0.081c-0.318,0.209-0.615,0.69-0.904,1.156
		c-0.455,0.736-0.971,1.571-1.844,1.876c-0.418,0.123-0.787,0.271-0.881,0.335c0.033-0.01,0.018,0.103,0.01,0.183
		c-0.029,0.293-0.068,0.693-0.383,0.987c-0.25,0.19-0.465,0.219-1.115,0.196c-0.203,0.564-0.232,0.639-0.346,0.758
		c-0.205,0.216-0.533,0.265-0.795,0.117c-0.387-0.217-0.867-0.41-1.334-0.596c-0.316-0.127-0.611-0.246-0.854-0.362
		c-0.229-0.109-0.373-0.339-0.373-0.592c0-0.101,0.012-0.249,0.027-0.415c0.018-0.174,0.051-0.536,0.025-0.648
		c-0.158-0.281-0.059-0.564,0.191-0.766c0.25-0.201,0.516-0.196,0.764-0.117c0.023-0.154,0.062-0.344,0.145-0.575
		c0.094-0.262,0.342-0.436,0.619-0.436h0.029c-0.023-0.247,0.004-0.543,0.242-0.787c0.27-0.303,0.842-0.561,1.75-0.946
		c0.262-0.112,0.637-0.272,0.824-0.372c0.01-0.07,0.018-0.169,0.025-0.242c0.025-0.351,0.062-0.832,0.438-1.127
		c0.164-0.149,0.457-0.212,0.68-0.237l0.375-0.371c0.322-0.383,3.787-3.826,4.732-4.104c0.061-0.018,0.123-0.026,0.186-0.026h0.402
		c0.115-0.249,0.305-0.733,0.455-1.19c0.039-0.115,0.107-0.218,0.199-0.296c0.412-0.349,0.879-0.259,1.242-0.095
		c0.031-0.054,0.062-0.107,0.094-0.158c-0.258-0.389-0.123-0.834-0.049-1.077c0.084-0.276,0.338-0.464,0.627-0.464h0.021
		c-0.033-0.208-0.002-0.472,0.199-0.734c0.178-0.25,0.504-0.386,0.816-0.518c0.055-0.024,0.127-0.053,0.188-0.082
		c-0.037-0.085-0.07-0.191-0.086-0.31c-0.037-0.024-0.076-0.048-0.115-0.072c-0.043,0.025-0.088,0.043-0.135,0.055
		c-0.338,0.077-0.725,0.193-1.1,0.304c-0.789,0.233-1.266,0.407-1.656,0.37c-0.168-0.003-0.328-0.07-0.449-0.188
		c-0.049-0.044-0.279-0.229-0.457-0.171c-0.129,0.054-0.523,0.375-0.762,0.566c-0.482,0.392-0.791,0.636-1.07,0.738
		c-0.26,0.083-0.602,0.076-1.32,0.046l-0.098-0.005c-0.002,0.623-0.043,0.658-0.227,0.822c-0.059,0.049-0.123,0.088-0.193,0.116
		c-0.51,0.198-1.145-0.028-1.816-0.268c-0.266-0.094-0.768-0.265-0.844-0.247c-0.303,0.052-1.021,0.401-1.547,0.655
		c-0.334,0.161-0.648,0.313-0.893,0.414c-0.26,0.108-0.557,0.039-0.742-0.169c-0.176-0.2-0.715-0.804-0.547-1.47
		c0.082-0.328,0.324-0.592,0.666-0.729c0.029-0.014,0.062-0.026,0.096-0.034l0.379-0.104c0.014-0.046,0.029-0.098,0.039-0.139
		c0.066-0.255,0.166-0.64,0.516-0.918c0.344-0.273,0.775-0.288,1.07-0.255c0.447-0.283,1.014-0.323,1.357-0.311
		c0.338-0.224,0.633-0.471,0.941-0.729c0.229-0.192,0.453-0.379,0.688-0.552c0.17-0.139,0.449-0.212,0.824-0.295
		c0.045-0.017,0.182-0.047,0.23-0.053c0,0,1.264-0.154,2.029-0.25v-0.082c0-0.298,0.201-0.558,0.488-0.635
		c0.805-0.21,1.277,0.08,1.557,0.256c0.029,0.018,0.053,0.033,0.074,0.046c0.178-0.384,0.439-0.798,0.939-0.949
		c0.254-0.077,0.533,0.008,0.701,0.217c0.025,0.031,0.047,0.065,0.066,0.099c0.033,0.053,0.111,0.146,0.201,0.218
		c0.162-0.289,0.197-0.322,0.25-0.374c0.168-0.165,0.412-0.229,0.641-0.162c2.152,0.622,3.5,1.079,4.076,2.193
		c0.449,0.87,0.363,2.001-0.297,3.904c-0.312,0.863-0.686,1.218-0.936,1.453c-0.125,0.119-0.168,0.163-0.193,0.224
		c0.096,0.245,0.215,0.632-0.039,1.065c-0.072,0.123-0.18,0.215-0.303,0.268c0.002,0.032,0,0.062-0.002,0.094
		c1.785-0.4,3.699-0.599,4.719-0.347c4.262,1.045,3.619,3.871,3.234,5.56c-0.123,0.547-0.295,1.298-0.107,1.401
		c0.168,0.092,0.287,0.254,0.326,0.441c0.039,0.188-0.006,0.384-0.125,0.535c-0.221,0.288-0.504,0.31-1.178,0.277
		c-0.08,0.242-0.137,0.454-0.191,0.662c-0.102,0.382-0.199,0.747-0.396,1.212c-0.004,0.011-0.01,0.021-0.014,0.032
		c0.072,0.151,0.086,0.326,0.033,0.489c-0.062,0.192-0.209,0.344-0.396,0.414l-0.695,0.255c-0.016,0.078-0.047,0.155-0.1,0.233
		c-0.141,0.156-0.199,0.218-0.768,0.507l-0.029,0.037l-0.232,0.911c-0.037,0.143-0.121,0.27-0.24,0.36l-0.799,0.606l-1.168,0.735
		c0.035,0.264-0.092,0.53-0.332,0.664c-0.453,0.249-0.871,0.416-1.287,0.579c-0.199,0.079-0.396,0.157-0.6,0.247
		c0.008,0.86-0.025,0.936-0.297,1.117c-0.717,0.343-1.252,0.479-1.701,0.453l-0.549-0.065l-0.018,0.212
		c-0.021,0.255-0.188,0.474-0.428,0.562l-0.799,0.291l-1.064,0.962l-0.641,0.475C107.303,191.688,107.168,191.732,107.027,191.732
		 M109.088,188.644l-0.217,0.218l0.205-0.075L109.088,188.644z M110.621,187.823l0.281,0.037c0.029-0.003,0.059-0.005,0.078-0.003
		c0.098,0,0.293-0.008,0.621-0.127c-0.002-0.17-0.004-0.353-0.006-0.455c-0.004-0.248,0.133-0.558,0.355-0.672
		c0.371-0.191,0.725-0.332,1.08-0.472c0.207-0.082,0.414-0.162,0.625-0.257c-0.018-0.258,0.102-0.522,0.334-0.645l0.709-0.373
		l1.424-0.996l0.211-0.823c0.023-0.088,0.062-0.17,0.119-0.243l0.203-0.259c0.061-0.076,0.137-0.138,0.223-0.181
		c0.074-0.038,0.146-0.075,0.209-0.107c0.016-0.252,0.176-0.483,0.428-0.575l0.408-0.15l-0.186-0.277
		c-0.158-0.233-0.148-0.54,0.021-0.763s0.463-0.313,0.729-0.226c0.031,0.011,0.062,0.022,0.094,0.035
		c0.031-0.104,0.057-0.206,0.086-0.31c0.096-0.368,0.199-0.749,0.398-1.248c0.1-0.249,0.342-0.412,0.609-0.412l0.041,0.001
		c-0.035-0.508,0.094-1.078,0.215-1.612c0.398-1.748,0.742-3.257-2.266-3.994l-0.002-0.001c-1.387-0.334-5.342,0.466-6.977,1.268
		c-0.311,0.154-0.684,0.039-0.855-0.258c-0.174-0.298-0.088-0.679,0.197-0.873c0.297-0.201,0.574-0.425,0.857-0.652
		c0.293-0.235,0.596-0.475,0.926-0.706c-0.271-0.683-0.277-0.804-0.129-1.06c0.117-0.202,0.334-0.326,0.568-0.326h0.059
		c0.018-0.089,0.047-0.184,0.094-0.281c0.121-0.293,0.324-0.487,0.488-0.641c0.205-0.194,0.396-0.376,0.602-0.94
		c0.512-1.477,0.627-2.362,0.369-2.863c-0.305-0.583-1.295-0.951-2.785-1.393c-0.055,0.104-0.104,0.194-0.104,0.194
		c-0.098,0.184-0.279,0.308-0.486,0.337c-0.498,0.07-0.896-0.112-1.189-0.331c-0.002,0.002-0.002,0.004-0.004,0.006
		c-0.094,0.224-0.211,0.503-0.527,0.619c-0.703,0.219-1.131-0.049-1.385-0.21c-0.014-0.009-0.027-0.017-0.039-0.025
		c-0.025,0.298-0.25,0.545-0.549,0.594c-0.229,0.037-2.281,0.288-2.594,0.327c-0.018,0.005-0.074,0.02-0.141,0.035
		c-0.117,0.026-0.285,0.057-0.381,0.1c-0.166,0.128-0.369,0.299-0.576,0.472c-0.381,0.319-0.773,0.649-1.273,0.951
		c-0.121,0.073-0.262,0.105-0.404,0.091c-0.303-0.028-0.693,0.028-0.777,0.114c-0.117,0.153-0.295,0.246-0.486,0.256
		c-0.121,0.003-0.23-0.019-0.332-0.071c-0.064-0.007-0.131-0.01-0.162,0c0.01-0.053,0,0.115-0.02,0.196
		c-0.029,0.112-0.064,0.244-0.121,0.379c0.443-0.203,0.861-0.371,1.188-0.427c0.418-0.077,0.916,0.1,1.496,0.307
		c0.135,0.049,0.314,0.112,0.482,0.165c-0.002-0.069-0.002-0.129-0.002-0.173c-0.004-0.312,0.215-0.663,0.52-0.727
		c0.17-0.035,0.396-0.029,0.949-0.007c0.285,0.014,0.76,0.033,0.883,0.013c0.041-0.03,0.393-0.315,0.625-0.504
		c0.543-0.439,0.893-0.714,1.213-0.805c0.629-0.197,1.176,0.068,1.488,0.281c0.275-0.056,0.742-0.194,1.076-0.292
		c0.227-0.068,0.461-0.137,0.686-0.198c0.047-0.096,0.111-0.165,0.156-0.207c0.486-0.441,1.115-0.037,1.779,0.392
		c0.174,0.077,0.348,0.254,0.402,0.436c0.057,0.183,0.068,0.409-0.035,0.57c0.117,0.141,0.227,0.492,0.049,0.9
		c-0.174,0.37-0.547,0.526-0.906,0.678c-0.047,0.021-0.113,0.048-0.174,0.075c0.08,0.26,0.133,0.585-0.055,0.935
		c-0.07,0.133-0.186,0.234-0.318,0.293c0.021,0.161-0.01,0.325-0.113,0.458c-0.135,0.173-0.51,0.711-0.633,1.103
		c-0.053,0.167-0.17,0.307-0.326,0.387c-0.156,0.081-0.338,0.096-0.504,0.041c-0.121-0.04-0.219-0.103-0.342-0.183
		c-0.029-0.019-0.072-0.046-0.117-0.074c-0.279,0.765-0.537,1.25-0.77,1.446c-0.117,0.099-0.268,0.154-0.424,0.154h-0.611
		c-0.674,0.366-3.502,3.021-4.088,3.71l-0.586,0.584c-0.123,0.122-0.289,0.19-0.461,0.19c-0.02,0-0.051,0.003-0.086,0.007
		c-0.006,0.055-0.01,0.115-0.014,0.163c-0.027,0.357-0.061,0.802-0.404,1.1c-0.252,0.197-0.635,0.364-1.238,0.621
		c-0.33,0.14-0.891,0.379-1.172,0.542c0.002,0.003,0.002,0.004,0.002,0.006c0.055,0.239,0.137,0.599-0.043,0.939
		c-0.113,0.216-0.338,0.35-0.582,0.35h-0.221c-0.002,0.01-0.002,0.019-0.004,0.027c-0.031,0.249-0.072,0.559-0.328,0.975
		c-0.102,0.164-0.264,0.268-0.439,0.301c0.064,0.026,0.129,0.052,0.195,0.079c0.258,0.103,0.537,0.215,0.811,0.335
		c0.137-0.383,0.158-0.425,0.258-0.528c0.123-0.127,0.293-0.198,0.471-0.198l0.199,0.007c0.117,0.005,0.285,0.014,0.439,0.019
		c0-0.003,0-0.006,0-0.008c0.029-0.305,0.076-0.767,0.463-1.066c0.23-0.219,0.848-0.436,1.314-0.572
		c0.402-0.142,0.771-0.739,1.129-1.317c0.363-0.588,0.738-1.196,1.291-1.557c0.484-0.331,0.959-0.314,1.312-0.3
		c0.252,0.007,0.432,0.015,0.643-0.079c-0.07,0.027,0-0.094,0.037-0.169c0.127-0.255,0.297-0.604,0.664-0.798
		c0.432-0.243,1.021-0.376,1.537-0.493c0.123-0.028,0.244-0.055,0.359-0.083c0.061-0.23,0.246-0.414,0.486-0.47
		c0.518-0.118,0.848-0.023,1.072,0.131c0.258-0.423,0.449-0.727,0.822-0.792c0.396-0.107,0.734-0.05,1,0.044
		c0.092-0.201,0.281-0.349,0.516-0.379c0.598-0.073,1.064-0.112,1.553-0.152c0.359-0.03,0.732-0.06,1.184-0.108
		c0.008-0.14,0.051-0.29,0.168-0.433c0.268-0.325,0.689-0.304,0.916-0.297h0.002c0.252,0,0.453,0.137,1.168,0.658
		c0.121,0.086,0.238,0.173,0.336,0.243c0.016,0,0.033,0.001,0.047,0.001c0.629,0.041,0.721,0.644,0.889,1.739l0.027,0.171
		c0.062,0.323-0.121,0.66-0.432,0.764c-0.029,0.011-0.094,0.038-0.17,0.071c0.012,0.015,0.023,0.03,0.035,0.047
		c0.361,0.484,0.357,1.283,0.168,1.789c-0.094,0.257-0.34,0.428-0.613,0.428h-0.043c0.02,0.191,0,0.405-0.119,0.632
		c-0.113,0.217-0.336,0.353-0.582,0.353h-0.264c-0.01,0.026-0.016,0.051-0.025,0.076c-0.016,0.054-0.039,0.107-0.068,0.158
		l-0.188,0.859c-0.023,0.086-0.061,0.165-0.113,0.236l-0.438,0.577c-0.051,0.065-0.111,0.121-0.18,0.163l-0.75,0.459
		c-0.096,0.06-0.207,0.092-0.318,0.097c0.02,0.131,0.039,0.26,0.047,0.379c0.008,0.169-0.047,0.335-0.156,0.462l-0.467,0.547
		l-0.416,0.855c-0.092,0.194-0.275,0.329-0.488,0.363l-0.736,0.114l-0.693,1.043c-0.172,0.262-0.504,0.364-0.795,0.244L111,186.908
		l-0.023,0.374C110.961,187.512,110.826,187.718,110.621,187.823 M99.26,182.919h0.016H99.26z"/>
	<path fill="#FFFFFF" d="M102.074,163.048c-0.201,3.816-0.449,9.292-0.686,16.582l-0.254,8.907c-0.037,1.405-0.076,2.86-0.105,4.365
		c-0.039,0.033-0.074,0.067-0.104,0.12c0.1,0.206-0.133,0.184-0.076,0.355c-0.107,0.031-0.023,0.165-0.043,0.256
		c0.123,0.066,0.043,0.314,0.135,0.446l0.055,0.323c-0.025-0.01-0.033,0.023-0.051,0.039l0.01,0.086
		c-0.123-0.034-0.111,0.108-0.162,0.147c0.049,0.049,0.107,0.009,0.174-0.005c-0.004,0.028,0.008,0.046,0.023,0.061
		c-0.014,0.443-0.02,0.881-0.027,1.333c-0.055,0.11-0.129,0.206-0.305,0.205l0.008,0.088c-0.027,0.002-0.039,0.016-0.049,0.036
		c-0.035,0.224-0.318,0.366-0.143,0.641c0.135,0.035,0.105,0.434,0.352,0.214c0.039-0.032,0.074-0.057,0.115-0.079
		c0,0.058-0.002,0.118-0.01,0.177c-0.082,0.023-0.148,0.057-0.162,0.16c-0.027,0.184-0.299,0.247-0.178,0.516
		c-0.021,0.078-0.152,0.104-0.092,0.211c-0.105,0.032-0.021,0.164-0.033,0.253c-0.018,0.225,0.271,0.007,0.301,0.178l0.012,0.13
		c-0.104,0.035-0.029,0.167-0.031,0.255c0.018,0.04,0.068,0,0.059,0.078c0.049,0.092-0.066,0.116-0.076,0.155l-0.055,0.017
		c-0.109-0.054-0.268-0.023-0.348-0.147c-0.021-0.124,0-0.191,0.059-0.257c0.092-0.018,0.1-0.08,0.133-0.155
		c-0.133-0.008-0.227-0.137-0.346-0.144l-0.006-0.029c-0.107-0.036-0.223,0.012-0.328,0.033c0.027-0.268-0.23-0.192-0.213-0.429
		l0.027-0.004l-0.021-0.539c0.027-0.007,0.039-0.022,0.045-0.051l-0.006-0.089c0.043,0.006,0.053-0.024,0.064-0.043
		c-0.062-0.089,0.059-0.11,0.068-0.158c0.057-0.096,0.201-0.066,0.232-0.202c-0.059-0.051-0.078-0.104-0.07-0.192
		c0.107,0.024,0.1-0.105,0.146-0.162c0.041-0.14-0.092-0.13-0.123-0.179l-0.055,0.008c-0.07-0.233-0.193-0.403-0.391-0.485
		c-0.012-0.13-0.033-0.227,0.07-0.29c0.215-0.13,0.25,0.129,0.41,0.013l-0.059-0.08c0.031-0.121,0.193-0.078,0.297-0.112
		c-0.012,0.032,0.018,0.044,0.031,0.054l0.078-0.013c-0.025,0.12,0.094,0.117,0.158,0.085c0.023,0,0.09,0.014,0.105-0.048
		c-0.121-0.109-0.312-0.16-0.369-0.328c-0.078,0.016-0.078-0.129-0.178-0.053c0.008-0.063-0.047-0.066-0.086-0.046l-0.078,0.016
		c-0.004-0.057-0.043-0.066-0.082-0.057l-0.098,0.016c0.016-0.03-0.012-0.039-0.031-0.053c-0.088-0.008-0.203-0.077-0.264-0.151
		c0.037-0.157-0.078-0.136-0.125-0.201c0.055-0.027,0.031-0.137,0.139-0.116c0.055-0.141-0.084-0.348,0.094-0.426l-0.01-0.086
		c0.027,0.012,0.037-0.023,0.053-0.038l-0.008-0.084c0.023-0.009,0.039-0.024,0.049-0.041l-0.01-0.1
		c0.107-0.034,0.027-0.166,0.045-0.242c-0.195-0.123-0.15-0.473-0.336-0.584l-0.006-0.101c0.031,0.01,0.039-0.022,0.049-0.042
		c-0.035-0.093,0.082-0.159,0.113-0.223c0.029-0.005,0.078-0.014,0.088-0.046c0.09-0.043,0.209-0.126,0.32-0.191
		c-0.008-0.085-0.096-0.024-0.078-0.128c0.061-0.071,0.107-0.125,0.158-0.19c-0.07-0.108-0.176-0.159-0.297-0.181
		c-0.057-0.124-0.178-0.174-0.145-0.383c0.041,0.007,0.049-0.055,0.043-0.101c0.029-0.146-0.109-0.092-0.076-0.262
		c0.047-0.066,0.178-0.118,0.141-0.273l-0.117-0.067c0.023-0.021,0.07-0.1,0.039-0.157c0.168-0.088,0.275-0.222,0.354-0.367
		l-0.016-0.191c0.141-0.066,0.105,0.4,0.041,0.133c-0.018-0.042-0.256,0.126-0.299,0.107c-0.127,0.068,0-0.188,0.312-0.394
		c-0.008-0.06-0.061-0.066-0.1-0.041l-0.08,0.016c0.014-0.035-0.016-0.06-0.031-0.069c-0.084,0.073-0.096-0.053-0.152-0.057
		c-0.002-0.061,0.018-0.126-0.039-0.143l-0.078,0.015l-0.008-0.103c0.127-0.024,0.277-0.018,0.379-0.098l-0.008-0.089
		c0.051,0.009,0.062-0.053,0.057-0.093c-0.018-0.044,0.006-0.105-0.039-0.124c-0.148-0.006-0.131,0.167-0.24,0.174
		c0-0.029-0.012-0.043-0.031-0.052l-0.09,0.013c0.01-0.044-0.02-0.055-0.027-0.065l-0.084,0.014
		c-0.014-0.149-0.107-0.156-0.084-0.324c0.029,0.011,0.039-0.023,0.053-0.037l-0.006-0.083c0.023,0.008,0.033-0.024,0.049-0.043
		l-0.012-0.087l0.031-0.004c0.027-0.107,0.016-0.251-0.035-0.329l-0.02,0.005c-0.053-0.106,0.055-0.119,0.059-0.173
		c0.027-0.004,0.082,0,0.094-0.048c-0.072-0.057-0.107-0.183-0.24-0.146l-0.023-0.203c0.059-0.009,0.066-0.058,0.049-0.094
		l-0.014-0.104c0.055,0.008,0.066-0.049,0.047-0.091l-0.01-0.088c0.031-0.003,0.043-0.022,0.051-0.04
		c0.008-0.223-0.264-0.127-0.217-0.397l-0.031,0.003c0.105-0.046,0.008-0.174,0.033-0.284l0.02-0.004
		c0.045-0.107,0.01-0.234,0-0.365c0.025,0.01,0.035-0.023,0.045-0.038l-0.006-0.084c0.027,0.009,0.039-0.023,0.053-0.04
		l-0.008-0.086c0.061-0.141,0.031-0.345,0.186-0.447l-0.305-0.279c0.045-0.067,0.131-0.129,0.094-0.253
		c-0.078-0.172-0.148-0.34-0.217-0.517c0.059-0.057,0.078-0.159,0.186-0.149l0.004,0.026c0.08,0.033,0.184-0.017,0.275-0.017
		c-0.1-0.203,0.412-0.473-0.012-0.468c-0.004-0.074-0.1-0.027-0.064-0.134c0.023,0,0.033-0.026,0.047-0.039
		c-0.008-0.087-0.074-0.034-0.09-0.114c-0.08,0.01-0.047,0.106-0.139,0.098c0.004-0.06-0.049-0.063-0.084-0.057l-0.094,0.015
		c0.012-0.031-0.035-0.039-0.049-0.054c-0.09,0.057-0.082-0.061-0.135-0.067c-0.006-0.087,0.137-0.118,0.094-0.26l0.025-0.004
		c0.137-0.407-0.213-0.453-0.105-0.903c0.023,0.014,0.035-0.017,0.051-0.032l-0.059-0.083c0.027,0.015,0.039-0.016,0.051-0.036
		c0.049-0.235,0.322-0.281,0.256-0.609c0.027,0.006,0.039-0.021,0.053-0.038c0.049-0.139,0.146-0.253,0.031-0.363
		c0.008-0.166-0.156-0.233-0.111-0.443c0.008-0.141,0.291-0.007,0.189-0.182l-0.076,0.012c-0.047-0.127-0.154-0.2-0.135-0.375
		c0.029-0.007,0.037-0.019,0.049-0.034v-0.035c-0.105-0.069-0.354,0.09-0.389-0.079c-0.041-0.094,0.049-0.12,0.076-0.181
		c0.064-0.01,0.17-0.01,0.137-0.107c-0.014-0.044,0.018-0.103-0.023-0.127l-0.033,0.002c-0.016-0.153,0.227-0.071,0.211-0.229
		c-0.135,0.015-0.197-0.121-0.221-0.219c0.057-0.125,0.049-0.309,0.17-0.384c0.053-0.08,0.02-0.162,0.018-0.249
		c0.055-0.007,0.064-0.053,0.062-0.097l-0.004-0.101c0.031,0.013,0.041-0.017,0.049-0.034c-0.064-0.05-0.084-0.195-0.229-0.145
		c0.012-0.031,0.086-0.042,0.076-0.054c-0.094,0.054-0.098-0.075-0.148-0.083c-0.006-0.027-0.24-7.043-0.24-7.043
		c0.062-0.129,0-1.052,0-1.052c0.012-0.025-0.014-0.041-0.021-0.055c-0.1,0.042-0.094-0.073-0.131-0.087
		c0.012-0.159-0.047-0.232-0.094-0.329c0-0.133,0.156-0.133,0.139-0.272c0,0,0.059-0.207,0.076-0.307
		c-0.076-0.057-0.184-0.704-0.088-0.781c0.07,0,0.174,0.012,0.156-0.099c-0.027-0.145-0.145-0.232-0.086-0.448
		c0.053,0,0.07-0.047,0.07-0.086c0.047-0.131-0.066-0.131-0.102-0.188h-0.057c0.018-0.059-0.033-0.071-0.074-0.057H98.41
		c-0.02-0.142,0.062-0.344-0.094-0.359c-0.086,0.045,0.113-0.276,0.146-0.388c0,0,0.186-0.291,0.156-0.278h-0.078
		c0.002-0.028-0.016-0.041-0.029-0.057c-0.096-0.04-0.201-0.119-0.232-0.215c0.223,0.055,0.059-0.62-0.006-0.634l0.008-0.089
		c0.094-0.016,0.037-0.157,0.072-0.245c-0.045-0.123-0.104-0.26-0.145-0.385c0.01-0.131,0.197-0.142,0.145-0.335h0.029l-0.086-1.321
		c0.041,0.013-0.053-0.236-0.049-0.282l0.006-0.1c0.092-0.025,0.168-0.603,0.105-0.663l0.012-0.174
		c0.104-0.014-0.053-0.156-0.033-0.246h0.029c0.061-0.083,0.027-0.112,0.031-0.216l-0.061-0.273c0.08-0.096-0.217-0.635-0.09-0.618
		c0.002-0.041,0.033-0.103-0.018-0.13h-0.027c0,0,0.102-0.274,0.047-0.303c0,0,0.02,0.153,0.039,0.098
		c-0.068-0.159-0.08-0.346-0.119-0.52c0.139-0.086,0.039-0.021,0.025-0.25c-0.062-0.206-0.025-0.272-0.08-0.475
		c0.039-0.085-0.09-1.193-0.1-1.44l4.359-0.425L102.074,163.048"/>
	<path fill="#FFFFFF" d="M116.852,171.136c-1.551-0.38-5.668,0.452-7.422,1.314c0.742-0.502,1.379-1.138,2.225-1.636
		c-0.102-0.263-0.391-0.959-0.369-0.99h0.369c-0.344,0.481,0.271,0.277,0.369,0.326c0.211-0.358-0.17-0.617,0-0.982
		c0.211-0.503,0.699-0.485,1.113-1.643c1.305-3.726,0.307-4.198-3.334-5.252c-0.039,0.036-0.373,0.654-0.373,0.654
		c-0.67,0.091-1.131-0.654-1.115-0.654c-0.498,0.152-0.604,0.932-0.74,0.984c-0.803,0.243-0.834-0.598-1.859-0.33v0.658
		c-0.242,0.039-2.598,0.328-2.598,0.328c-0.092,0.028-0.619,0.122-0.742,0.228c-0.605,0.438-1.125,0.973-1.855,1.414
		c0,0-1.002-0.104-1.359,0.363l-0.027-0.026c0,0-0.514-0.149-0.799,0.077c-0.283,0.225-0.26,0.651-0.414,0.928
		c-0.035,0.056-0.045,0.111-0.047,0.159l-0.711,0.194c0.041,0-0.781,0.17,0.105,1.159c0.697-0.285,1.973-1.006,2.592-1.108
		c0.541-0.103,1.994,0.759,2.516,0.55c0.006-0.009,0-0.943,0-0.986c0.246-0.047,1.59,0.084,1.855,0
		c0.4-0.143,1.461-1.201,1.854-1.31c0.594-0.183,1.121,0.327,1.121,0.327c0.461,0.01,1.703-0.451,2.598-0.654
		c-0.363-0.697,0.994,0.274,1.111,0.327c-0.223,0.346,0.162,0.606,0,0.983c-0.117,0.25-0.939,0.411-1.111,0.655
		c-0.256,0.332,0.195,0.62,0,0.987h-0.746c-0.115,0.394-0.148,0.656,0.373,0.656c0,0-0.557,0.72-0.746,1.314
		c-0.158-0.049-0.775-0.617-1.109-0.326c0,0-0.465,1.404-0.746,1.641h-0.744c-0.658,0.194-3.893,3.283-4.451,3.941l-0.547,0.543
		c-0.115,0-0.484,0.041-0.566,0.117c-0.293,0.223-0.082,1.065-0.371,1.308c-0.393,0.308-2.229,0.902-2.6,1.315
		c-0.197,0.207,0.141,0.718,0,0.986h-0.742c-0.207,0.597-0.055,0.801-0.371,1.313c-0.139-0.063-0.6-0.441-0.742-0.331
		c0.143,0.25,0,1.03,0,1.317c0.592,0.286,1.531,0.593,2.227,0.987c0.037-0.042,0.35-0.956,0.371-0.987c0.105,0,1.035,0.06,1.115,0
		c0.281-0.257,0.072-0.935,0.389-1.188c0.184-0.16,0.816-0.374,1.094-0.454c1.174-0.411,1.623-2.318,2.604-2.958
		c0.602-0.407,1.125,0,1.85-0.328c0.34-0.164,0.396-0.795,0.742-0.98c0.609-0.345,1.627-0.444,2.23-0.66v-0.33
		c0.908-0.203,0.502,0.515,1.115,0.33c0.16-0.054,0.578-0.957,0.742-0.984c0.801-0.217,1.113,0.43,1.482,0.326v-0.658
		c1.223-0.152,1.883-0.152,3.342-0.328c0.127-0.441-0.336-0.689,0.371-0.655c0.152,0,1.301,0.922,1.484,0.983
		c0.141-0.481,0.348,1.222,0.371,1.316c-0.094,0.03-0.742,0.315-0.742,0.326v0.657c0.463-0.028,0.545,0.853,0.371,1.315h-0.744
		c-0.227,0.358,0.199,0.602,0,0.985h-0.74c-0.07,0.213-0.131,0.398-0.184,0.574l-0.057,0.019l-0.049,0.384
		c-0.051,0.2-0.092,0.398-0.146,0.614l-0.441,0.573l-0.748,0.464h-0.605c-0.164,0.23-0.006,0.712,0.021,1.068l-0.525,0.608
		l-0.449,0.935l-1.02,0.163l-0.855,1.279l-0.875-0.355l-0.082,1.286c-0.061-0.045-0.146-0.07-0.295-0.057
		c0,0-0.006,0.075-0.004,0.193l-0.867,0.289l-0.697,0.676l-0.646,0.753l-0.781,0.082l0.051,0.506l-0.586,0.649l-0.207-0.472
		l-0.51,1.01l0.672,0.2l0.58,0.005l0.59-0.435l1.158-1.046l0.914-0.337l0.08-0.89l1.129,0.154l0.047-0.013
		c0.314,0.018,0.736-0.071,1.307-0.34c0.012-0.012,0-0.946,0-0.984c0.754-0.39,1.438-0.556,2.23-0.987
		c-0.047-0.108-0.109-0.242-0.188-0.39l0.707-0.372l0.9-0.588l0.799-0.608l0.262-1.044l0.211-0.258
		c0.35-0.181,0.619-0.316,0.645-0.353c0.02-0.03-0.016-0.143-0.072-0.297l1.186-0.443l-0.654-0.969
		c0.273,0.089,0.504,0.349,0.654,0.397c0.361-0.851,0.361-1.344,0.742-2.299c0.131,0,1.057,0.074,1.113,0
		C118.104,177.089,122.551,172.532,116.852,171.136"/>
	<path fill="#808285" d="M178.463,179.381c0.047,0.191,0.145,0.372,0.254,0.51C178.604,179.73,178.51,179.561,178.463,179.381
		 M183.613,178.898l0.002,0.005c-0.002-0.027-0.004-0.06-0.008-0.091C183.609,178.843,183.611,178.871,183.613,178.898
		 M183.445,177.33l0.002,0.004L183.445,177.33z M178.389,175.301c0,0,0,0.004-0.002,0.008
		C178.389,175.305,178.389,175.303,178.389,175.301 M178.391,175.295v0.002V175.295z M178.395,175.291v0.002V175.291z
		 M178.762,174.859c-0.137,0.105-0.256,0.232-0.35,0.376c0.037-0.047,0.08-0.091,0.123-0.132c0.074-0.069,0.148-0.133,0.229-0.193
		C178.764,174.893,178.762,174.877,178.762,174.859 M178.76,174.604c-0.041,0.046-0.086,0.101-0.129,0.164
		c0.037-0.051,0.08-0.104,0.129-0.157V174.604z M179.256,174.596c0,0.006,0.002,0.013,0.006,0.021l0.07-0.047
		C179.305,174.58,179.281,174.586,179.256,174.596 M183.461,170.025l0.002,0.008c0.041-0.011,0.08-0.023,0.119-0.037l-0.004-0.006
		C183.539,170.002,183.5,170.017,183.461,170.025 M177.443,169.258l-0.002,0.004L177.443,169.258z M178.818,169.14h0.039H178.818z
		 M180.965,168.524c0.006,0.001,0.016,0.003,0.023,0.003c0.01-0.078,0.021-0.156,0.043-0.232c-0.018,0.028-0.031,0.055-0.049,0.078
		c-0.008,0.01-0.016,0.02-0.02,0.029l-0.004,0.006C180.963,168.445,180.963,168.484,180.965,168.524 M181.221,167.736
		c-0.012,0.06-0.027,0.121-0.043,0.178c0.027-0.051,0.059-0.102,0.092-0.149c0.035-0.077,0.074-0.15,0.115-0.218
		c-0.016-0.05-0.031-0.101-0.045-0.152c-0.012,0.027-0.025,0.055-0.039,0.08C181.277,167.565,181.252,167.652,181.221,167.736
		 M184.568,166.149c0,0,0,0.001,0,0.003C184.568,166.15,184.568,166.149,184.568,166.149 M177.943,166.045c0,0,0.002,0,0.004,0.002
		C177.945,166.045,177.945,166.045,177.943,166.045"/>
	<path fill="#808285" d="M219.201,179.047c0.088-0.504,0.057-1.026-0.121-1.496c-0.232-0.68-0.369-0.91-0.982-1.065
		c-0.52-0.137-0.693-0.154-1.146,0.22c-1.355,1.102-4.723,3.575-6.135,4.648c-3.699,2.813-7.805,5.377-9.033,3.475
		c-0.738-1.141-0.455-4.629,0.459-7.071c2.242-5.953,6.059-10.914,10.027-13.499c0.729-0.34,1.074-1.243,0.84-2.196
		c-0.16-0.596-0.527-1.079-1.016-1.31c-0.389-0.189-0.824-0.189-1.205-0.028c-5.986,3.038-9.885,10.126-11.771,14.766
		c-1.117,2.76-2.689,8.092-0.793,12.724l0.365,0.755c0.58,1.083,2.248,1.567,2.648,1.605c3.459,0.27,7.932-2.876,11.654-5.67
		c1.42-1.077,3.982-3.247,5.43-4.145l0.543-0.948L219.201,179.047z"/>
	<path fill="#808285" d="M164.428,172.327l-0.021-0.099l-0.035-0.096l-0.307-0.878l-0.027-0.035l-0.012-0.037
		c-0.223-0.485-0.609-0.867-1.08-1.054l-0.48-0.169l-0.031-0.011l-0.035-0.015c-0.797-0.243-1.604-0.354-2.449-0.354
		c1.24-1.731,2.174-3.968,1.449-6.655c-0.703-2.591-2.633-4.197-4.668-3.912c-2.73,0.371-6.314,1.724-9.629,3.615
		c-0.051-0.179-0.109-0.365-0.164-0.546c-0.074-0.532-0.342-0.991-0.729-1.264c-0.34-0.238-0.746-0.311-1.127-0.23
		c-0.809,0.158-1.365,0.989-1.314,1.945c-0.016,0.735-0.043,1.472-0.051,2.281c-0.91,0.677-1.711,1.349-2.402,2.014
		c-0.561,0.49-0.781,1.371-0.527,2.149c0.184,0.557,0.572,0.972,1.07,1.118c0.445,0.131,0.893,0.034,1.279-0.242l0.033-0.021
		l0.023-0.033c0.166-0.146,0.34-0.297,0.504-0.439l0.014,1.615c0.02,4.237,0.051,8.619-0.375,12.875
		c-0.246,1.287,0.275,2.59,1.225,3.076l0.021,0.007l0.016,0.008c0.502,0.23,1.037,0.199,1.547-0.008
		c1.08-0.466,1.211-2.314,1.211-2.314c0.207-1.761,0.318-3.641,0.354-5.755l0.031-0.013l0.057-0.037l0.896-0.557
		c5.787-3.636,10.812-5.31,12.121-4.713c0.008,0.319-0.092,1.03-0.914,2.068c-4.229,5.366-8.301,9.183-13.656,12.782
		c-1.266,0.842-1.297,1.776-1.1,2.421c0.195,0.682,0.637,1.201,1.207,1.393c0.5,0.18,1.031,0.106,1.477-0.189
		c4.871-3.156,10.496-7.257,15.121-13.717C164.191,176.595,164.734,174.373,164.428,172.327 M147.543,170.581l-0.148-4.043
		c3.16-2.091,6.066-3.121,8.682-3.037c1.658,0.041,1.703,0.572,1.738,0.96c0.139,1.581-0.953,2.619-2.125,3.722l-0.473,0.461
		c-2.121,2.169-4.643,4.526-7.543,6.043C147.637,173.312,147.59,171.924,147.543,170.581"/>
	<path fill="#808285" d="M187.311,173.234c-0.035-0.192-0.074-0.368-0.094-0.518v-0.013h-0.014
		c-0.041-0.175-0.041-0.326-0.041-0.475c0-0.339,0-0.501-0.496-0.862c-0.225-0.153-1.254,0.124-1.254,0.124
		c-2.668,1.277-5.17,2.494-7.963,3.774c-1.334-2.715-3.451-7.887-4.807-10.305c-0.156-0.325-0.387-0.571-0.67-0.743
		c0.033-0.14,0.059-0.277,0.078-0.427c0.127-0.912-0.266-1.781-0.98-2.102l-0.055-0.027l-0.041-0.02
		c-0.4-0.131-0.822-0.091-1.207,0.122c-0.432,0.246-0.725,0.697-0.84,1.251c-1.084,5.394-2.854,12.006-4.494,17.318l-1.17,2.829
		l-2.215,1.377l-0.031,0.018c0.012,0,0,0.008,0,0.008c-0.617,0.42-0.926,1.292-0.732,2.146l0.006,0.009l0.004,0.033
		c0.156,0.545,0.504,0.958,0.969,1.146h0.027c-0.076,0.572-1,3.398-0.705,3.862c0.303,0.528,0.797,0.855,1.34,0.866
		c0.506,0.043,1.426,0.027,2.111-1.499v-0.015l0.006-0.023c0.324-0.901,1.695-4.069,2.117-5.18c1.836-0.979,3.672-2.005,5.445-2.998
		l3.945-2.194c0.551,1.461,3.143,9.392,3.678,9.713c0.412,0.236,0.908,0.302,1.363,0.14c0,0,0.283-0.085,0.352-0.128
		c2.578-1.587,1.252-3.69,1.252-3.69l-1.568-3.786l-0.186-0.453c-0.416-1.186-0.865-2.382-1.408-3.662
		c2.832-1.463,5.229-2.594,7.545-3.532l-0.113,0.046C187.721,174.992,187.41,173.662,187.311,173.234 M172.615,173.616
		c0.463,0.992,0.85,2.209,1.32,3.244c-1.773,0.995-3.551,2.029-5.396,3.11c0.225-1.013,1.623-7.485,2.338-10.749
		C171.219,169.979,172.266,172.866,172.615,173.616"/>
	<path fill="#808285" d="M201.541,186.031l-1.1-3.665c-3.295-2.032-6.68-4.145-9.896-6.621c2.898-1.841,5.785-3.864,7.891-7.408
		l0.004-0.032l0.012-0.006c0.176-0.342,1.684-3.323,0.641-5.276c-0.303-0.576-0.967-1.319-2.348-1.514
		c-3.805-0.549-11.139,2.268-16.023,6.131c-0.68,0.513-0.818,1.514-0.584,2.216c0.193,0.555,0.574,0.956,1.059,1.094
		c0.449,0.138,0.924,0.047,1.293-0.233l-0.045,0.029c0.521-0.341,1.104-0.698,1.732-1.056c0.195,4.95,0.463,13.908,0.434,18.855
		c-0.092,1.111,0.518,2.113,1.42,2.346c0.445,0.107,0.869-0.016,1.266-0.238c1.299-0.723,1.221-2.427,1.178-2.873
		c-0.164-1.56-0.447-7.08-0.52-8.533c1.223,0.739,3.229,1.964,6.559,3.959c2.688,1.627,5.473,3.299,5.734,3.487
		c-0.365-0.246,0.16,0.095,0.16,0.095l0.879,0.402c0,0,0.803,0.146,1.236-0.093C202.799,186.954,202.465,186.374,201.541,186.031
		 M187.42,168.098c4.035-1.783,7.539-2.642,8.791-2.584c-0.842,1.428-5.164,4.917-8.535,6.735
		C187.617,170.901,187.545,169.506,187.42,168.098"/>
	<path fill="#808285" d="M239.404,180.351c-0.031-0.703-0.322-1.312-0.781-1.673c-0.357-0.277-0.791-0.596-1.242-0.526h-0.041
		l-0.051,0.023c-4.416,1.491-9.045,3.287-13.363,5.125c-1.48,0.625-2.977,1.071-4.473,1.678l0.203-5.876
		c2.354-1.101,4.75-2.053,7.09-2.972c2.014-0.776,6.094-2.788,6.094-2.788c0.643-0.542,0.957-1.572,0.729-2.529l-0.018-0.015v-0.011
		c-0.174-0.704-0.602-1.246-1.168-1.466c-0.463-0.191-0.975-0.158-1.42,0.101c-1.906,1.102-3.898,2.097-5.822,3.045
		c-1.768,0.875-3.592,1.776-5.375,2.789c0.037-1.549,0.062-3.028,0.074-4.469c3.637-1.435,7.59-2.71,11.988-3.888
		c0.043,0.009,0.232-0.069,0.232-0.069c2.871-0.899,1.977-3.612,1.518-4.312c-0.396-0.54-1.176-0.947-2.027-0.644
		c-1.395,0.486-2.795,0.939-4.18,1.389c-2.496,0.79-5.074,1.609-7.605,2.706c-0.084-0.285-0.223-0.549-0.428-0.753
		c-0.283-0.289-0.652-0.449-1.035-0.454c-0.906-0.024-1.617,0.757-1.648,1.845v-0.046l-0.08,0.983
		c-1.084,0.604-1.588,0.919-2.559,1.619l-0.426,0.277c-0.693,0.401-1.02,1.347-0.818,2.229c0.125,0.589,0.49,1.043,0.982,1.242
		c0.408,0.171,0.885,0.154,1.285-0.073l-0.061,0.029c0.383-0.163,0.791-0.356,1.232-0.558c-0.125,1.644-0.252,3.521-0.371,5.417
		c-0.57,0.482-0.816,1.391-0.57,2.19c0.082,0.307,0.223,0.561,0.424,0.771c-0.113,2.366-0.457,7.059-0.391,7.484
		c0.074,0.592-0.072,1.424,0.812,1.89c1.354,0.73,10.203-3.252,14.064-4.842c2.293-0.944,4.832-1.919,7.172-2.835l0.695-0.522h0.037
		c0.148,0.007,0.602,0.041,0.971-0.294C239.449,181.188,239.426,180.708,239.404,180.351"/>
	<path fill="#808285" d="M256.213,178.643c-0.135-0.775-1.012-2.39-2.6-1.649c-1.576,0.735-3.91,2.108-5.693,3.075
		c-2.027,1.099-3.938,2.187-6.293,3.289c-0.418-2.893-0.504-5.921-0.584-8.866c-0.094-3.427,0.057-9.404-0.205-10.369
		c-0.162-0.557-0.09-0.972-0.791-1.317c-0.396-0.194-1.414-0.288-1.826-0.147c-0.785,0.242-1.275,1.102-1.213,2.045v4.298
		c0,5.931-0.012,12.072,0.703,17.984v0.022l0.014,0.023l0.025,0.197l0.016,0.085l0.021,0.05c0.049,0.169,0.096,0.319,0.16,0.458
		l0.006,0.018v0.008c0.15,0.324,0.32,0.578,0.559,0.781c1.047,0.873,2.387,0.435,2.387,0.435c3.432-1.277,6.631-3.141,9.711-4.922
		c1.408-0.831,2.273-1.258,3.98-2.418l0.385-0.223C256.129,180.753,256.389,179.683,256.213,178.643"/>
	<g>
		<defs>
			<rect id="SVGID_216_" x="265.996" y="133.134" width="139.59" height="93.391"/>
		</defs>
		<clipPath id="SVGID_44_">
			<use xlink:href="#SVGID_216_"  overflow="visible"/>
		</clipPath>
		<g clip-path="url(#SVGID_44_)">
			<defs>
				<rect id="SVGID_218_" x="265.996" y="133.133" width="139.59" height="93.392"/>
			</defs>
			<clipPath id="SVGID_46_">
				<use xlink:href="#SVGID_218_"  overflow="visible"/>
			</clipPath>
			<g transform="matrix(1 0 0 1 3.051758e-05 1.525879e-05)" clip-path="url(#SVGID_46_)">
				
					<image overflow="visible" width="4487" height="3002" xlink:href="B57AE116FF283D12.png"  transform="matrix(0.0311 0 0 0.0311 265.9961 133.1333)">
				</image>
			</g>
		</g>
	</g>
</g>
</svg>
