<?xml version="1.0" encoding="utf-8"?>
<!-- Generator: Adobe Illustrator 16.0.0, SVG Export Plug-In . SVG Version: 6.00 Build 0)  -->
<!DOCTYPE svg PUBLIC "-//W3C//DTD SVG 1.1//EN" "http://www.w3.org/Graphics/SVG/1.1/DTD/svg11.dtd">
<svg version="1.1" id="Objects" xmlns="http://www.w3.org/2000/svg" xmlns:xlink="http://www.w3.org/1999/xlink" x="0px" y="0px"
	 width="216px" height="216px" viewBox="0 0 216 216" enable-background="new 0 0 216 216" xml:space="preserve">
<g>
	<g>
		<circle fill="#333333" cx="108" cy="108" r="108"/>
		<g>
			<path opacity="0.77" fill="#333333" d="M183.015,169.233c3.044-2.764,7.587,1.258,5.054,4.497
				c-0.033,0.041-0.065,0.082-0.1,0.123c-19.77,23.983-48.918,37.738-79.969,37.738C50.879,211.592,4.408,165.121,4.408,108
				c0-25.616,9.423-50.204,26.535-69.235c0.022-0.025,0.045-0.05,0.068-0.075c2.745-2.955,7.375,0.939,5.068,4.247
				C14.195,74.308,16.531,108,16.531,108c0,50.437,41.033,91.47,91.469,91.47C108,199.47,145.784,203.043,183.015,169.233z"/>
			
				<path opacity="0.77" fill="none" stroke="#333333" stroke-width="3.2274" stroke-linecap="round" stroke-linejoin="round" stroke-miterlimit="10" d="
				M201.422,156.908c7.669-14.617,12.007-31.256,12.007-48.908C213.429,49.773,166.227,2.571,108,2.571
				c-16.776,0-32.638,3.918-46.719,10.89"/>
		</g>
	</g>
	<g>
		<ellipse fill="#E4210F" cx="108" cy="108" rx="100.527" ry="95.194"/>
		<g>
			<path fill="#FCE5E2" d="M47.352,103.201H36.27v9.733h12.351v2.924H32.59V88.862h15.396v2.924H36.27v8.532h11.082V103.201z"/>
			<path fill="#FCE5E2" d="M53.693,101.719c0-2.003-0.042-3.645-0.169-5.247h3.257l0.169,3.124h0.127
				c1.142-1.842,3.045-3.564,6.429-3.564c2.792,0,4.906,1.602,5.794,3.885h0.085c0.634-1.082,1.438-1.923,2.284-2.523
				c1.227-0.881,2.58-1.362,4.526-1.362c2.707,0,6.726,1.682,6.726,8.411v11.416h-3.638v-10.975c0-3.725-1.438-5.968-4.441-5.968
				c-2.115,0-3.765,1.482-4.399,3.204c-0.169,0.481-0.296,1.122-0.296,1.763v11.976h-3.638v-11.616c0-3.084-1.438-5.327-4.272-5.327
				c-2.326,0-4.019,1.762-4.61,3.525c-0.211,0.521-0.296,1.121-0.296,1.722v11.696h-3.637V101.719z"/>
			<path fill="#FCE5E2" d="M89.388,102.801c0-2.483-0.085-4.486-0.169-6.329h3.342l0.169,3.324h0.084
				c1.523-2.363,3.934-3.765,7.275-3.765c4.949,0,8.671,3.965,8.671,9.853c0,6.97-4.483,10.414-9.306,10.414
				c-2.707,0-5.076-1.121-6.302-3.044h-0.084v10.534h-3.68V102.801z M93.068,107.968c0,0.521,0.084,1.001,0.169,1.441
				c0.677,2.443,2.918,4.126,5.583,4.126c3.934,0,6.218-3.044,6.218-7.49c0-3.885-2.157-7.209-6.091-7.209
				c-2.538,0-4.907,1.722-5.625,4.366c-0.127,0.44-0.254,0.961-0.254,1.442V107.968z"/>
			<path fill="#FCE5E2" d="M115.946,106.806c0.085,4.766,3.3,6.729,7.021,6.729c2.665,0,4.272-0.44,5.668-1.001l0.635,2.523
				c-1.312,0.561-3.554,1.201-6.811,1.201c-6.302,0-10.066-3.925-10.066-9.773s3.638-10.454,9.602-10.454
				c6.683,0,8.459,5.567,8.459,9.132c0,0.721-0.084,1.282-0.127,1.642H115.946z M126.859,104.283
				c0.042-2.243-0.973-5.728-5.16-5.728c-3.765,0-5.414,3.285-5.711,5.728H126.859z"/>
			<path fill="#FCE5E2" d="M133.159,113.815l9.263-11.415c0.889-1.042,1.734-1.963,2.665-3.004v-0.08h-11.082v-2.844h15.607
				l-0.042,2.203l-9.137,11.255c-0.846,1.081-1.691,2.042-2.622,3.044v0.08h11.97v2.804h-16.622V113.815z"/>
			<path fill="#FCE5E2" d="M165.345,115.858l-0.297-2.443h-0.127c-1.142,1.522-3.341,2.884-6.26,2.884
				c-4.145,0-6.26-2.764-6.26-5.567c0-4.687,4.398-7.25,12.309-7.21v-0.4c0-1.602-0.466-4.486-4.653-4.486
				c-1.903,0-3.891,0.561-5.329,1.442l-0.846-2.323c1.691-1.042,4.146-1.722,6.726-1.722c6.26,0,7.782,4.045,7.782,7.931v7.25
				c0,1.683,0.085,3.324,0.339,4.646H165.345z M164.795,105.965c-4.061-0.08-8.672,0.601-8.672,4.366
				c0,2.283,1.607,3.364,3.511,3.364c2.665,0,4.357-1.602,4.949-3.244c0.127-0.36,0.212-0.761,0.212-1.122V105.965z"/>
			<path fill="#FCE5E2" d="M174.816,102.521c0-2.283-0.043-4.246-0.169-6.048h3.257l0.127,3.805h0.169
				c0.931-2.604,3.172-4.246,5.668-4.246c0.423,0,0.719,0.04,1.058,0.12v3.324c-0.381-0.08-0.762-0.12-1.27-0.12
				c-2.622,0-4.483,1.883-4.991,4.526c-0.084,0.48-0.169,1.041-0.169,1.642v10.334h-3.68V102.521z"/>
		</g>
		
			<line fill="none" stroke="#FCE5E2" stroke-width="2.3517" stroke-miterlimit="10" x1="45.495" y1="128.158" x2="170.505" y2="128.158"/>
		<g>
			<path opacity="0.4" fill="#F58472" d="M105.83,144.403c-14.306-6.308-26.211-16.758-34.036-29.734
				C56.501,89.304,54.318,63.463,61.228,41.143c1.37-4.425-3.905-7.921-7.82-5.18C17.623,61.017,1.722,109.58,30.164,156.285
				c8.105,13.31,20.574,23.753,35.408,29.977c50.287,21.095,98.244,2.795,121.607-31.569c2.103-3.095-1.104-6.992-4.757-5.739
				C159.913,156.681,133.254,156.496,105.83,144.403z"/>
			
				<path opacity="0.6" fill="none" stroke="#F58472" stroke-width="4.0823" stroke-linecap="round" stroke-linejoin="round" stroke-miterlimit="10" d="
				M205.71,108.364c0-51.195-43.827-92.698-97.891-92.698c-6.758,0-13.356,0.649-19.728,1.884"/>
		</g>
	</g>
</g>
</svg>
