<?xml version="1.0" encoding="utf-8"?>
<!-- Generator: Adobe Illustrator 16.0.0, SVG Export Plug-In . SVG Version: 6.00 Build 0)  -->
<!DOCTYPE svg PUBLIC "-//W3C//DTD SVG 1.1//EN" "http://www.w3.org/Graphics/SVG/1.1/DTD/svg11.dtd">
<svg version="1.1" id="Objects" xmlns="http://www.w3.org/2000/svg" xmlns:xlink="http://www.w3.org/1999/xlink" x="0px" y="0px"
	 width="216px" height="216px" viewBox="0 0 216 216" enable-background="new 0 0 216 216" xml:space="preserve">
<g>
	<g>
		<circle fill="#333333" cx="108" cy="108" r="108"/>
		<g>
			<path opacity="0.77" fill="#333333" d="M183.014,169.233c3.045-2.764,7.588,1.258,5.055,4.497
				c-0.033,0.041-0.066,0.082-0.1,0.123c-19.77,23.983-48.918,37.738-79.969,37.738C50.879,211.592,4.409,165.121,4.409,108
				c0-25.615,9.423-50.204,26.534-69.235c0.022-0.025,0.046-0.05,0.068-0.075c2.745-2.955,7.376,0.939,5.068,4.247
				C14.196,74.309,16.531,108,16.531,108c0,50.437,41.033,91.47,91.47,91.47C108,199.47,145.784,203.043,183.014,169.233z"/>
			
				<path opacity="0.77" fill="none" stroke="#333333" stroke-width="3.2274" stroke-linecap="round" stroke-linejoin="round" stroke-miterlimit="10" d="
				M201.422,156.908c7.668-14.617,12.006-31.256,12.006-48.908C213.428,49.773,166.227,2.571,108,2.571
				c-16.777,0-32.639,3.918-46.719,10.89"/>
		</g>
	</g>
	<g>
		<circle fill="#E4210F" cx="108" cy="108" r="83.194"/>
		<g>
			<path fill="#FCE5E2" d="M57.808,103.805h-9.171v8.505h10.221v2.556H45.592V91.274h12.741v2.555h-9.696v7.456h9.171V103.805z"/>
			<path fill="#FCE5E2" d="M63.057,102.51c0-1.75-0.035-3.185-0.14-4.585h2.695l0.14,2.73h0.105c0.945-1.61,2.521-3.115,5.321-3.115
				c2.31,0,4.06,1.4,4.795,3.395h0.07c0.525-0.945,1.19-1.68,1.89-2.205c1.015-0.77,2.135-1.19,3.746-1.19
				c2.24,0,5.565,1.47,5.565,7.351v9.976h-3.01v-9.591c0-3.255-1.19-5.216-3.675-5.216c-1.75,0-3.115,1.295-3.641,2.8
				c-0.14,0.42-0.245,0.98-0.245,1.54v10.466h-3.01v-10.151c0-2.695-1.19-4.656-3.536-4.656c-1.925,0-3.325,1.54-3.815,3.081
				c-0.175,0.455-0.245,0.98-0.245,1.505v10.221h-3.01V102.51z"/>
			<path fill="#FCE5E2" d="M92.596,103.455c0-2.17-0.07-3.92-0.14-5.531h2.766l0.14,2.905h0.07c1.26-2.065,3.255-3.29,6.021-3.29
				c4.096,0,7.176,3.465,7.176,8.611c0,6.09-3.71,9.102-7.701,9.102c-2.24,0-4.201-0.98-5.216-2.661h-0.07v9.206h-3.045V103.455z
				 M95.642,107.971c0,0.455,0.07,0.875,0.14,1.26c0.56,2.135,2.415,3.605,4.621,3.605c3.255,0,5.146-2.66,5.146-6.545
				c0-3.396-1.785-6.301-5.041-6.301c-2.101,0-4.061,1.505-4.656,3.815c-0.105,0.385-0.21,0.84-0.21,1.26V107.971z"/>
			<path fill="#FCE5E2" d="M114.576,106.956c0.07,4.166,2.73,5.88,5.811,5.88c2.205,0,3.535-0.385,4.69-0.875l0.525,2.205
				c-1.085,0.49-2.94,1.051-5.636,1.051c-5.216,0-8.331-3.432-8.331-8.542c0-5.11,3.011-9.136,7.946-9.136c5.53,0,7,4.865,7,7.98
				c0,0.63-0.069,1.12-0.104,1.436H114.576z M123.607,104.75c0.034-1.96-0.806-5.005-4.271-5.005c-3.115,0-4.48,2.87-4.726,5.005
				H123.607z"/>
			<path fill="#FCE5E2" d="M128.82,113.081l7.667-9.976c0.734-0.91,1.436-1.715,2.205-2.625v-0.07h-9.171v-2.485h12.916
				l-0.033,1.925l-7.562,9.836c-0.699,0.945-1.398,1.785-2.17,2.66v0.07h9.906v2.45H128.82V113.081z"/>
			<path fill="#FCE5E2" d="M155.458,114.866l-0.246-2.136h-0.105c-0.943,1.33-2.764,2.521-5.18,2.521c-3.43,0-5.18-2.416-5.18-4.866
				c0-4.095,3.639-6.335,10.186-6.301v-0.35c0-1.4-0.385-3.92-3.852-3.92c-1.574,0-3.219,0.49-4.41,1.26l-0.699-2.03
				c1.4-0.91,3.43-1.505,5.564-1.505c5.182,0,6.441,3.535,6.441,6.931v6.335c0,1.47,0.07,2.905,0.279,4.061H155.458z
				 M155.002,106.22c-3.361-0.07-7.176,0.525-7.176,3.815c0,1.996,1.33,2.941,2.904,2.941c2.205,0,3.605-1.4,4.096-2.836
				c0.105-0.314,0.176-0.665,0.176-0.98V106.22z"/>
			<path fill="#FCE5E2" d="M163.295,103.21c0-1.995-0.035-3.71-0.141-5.286h2.695l0.105,3.326h0.141
				c0.77-2.275,2.625-3.71,4.689-3.71c0.352,0,0.596,0.035,0.875,0.105v2.905c-0.314-0.07-0.629-0.105-1.049-0.105
				c-2.17,0-3.711,1.645-4.131,3.955c-0.07,0.42-0.141,0.91-0.141,1.436v9.031h-3.045V103.21z"/>
		</g>
		
			<line fill="none" stroke="#FCE5E2" stroke-width="2" stroke-miterlimit="10" x1="56.272" y1="125.617" x2="159.727" y2="125.617"/>
		<g>
			<path opacity="0.4" fill="#F58472" d="M106.204,139.814c-11.838-5.513-21.691-14.646-28.166-25.986
				C65.381,91.661,63.575,69.077,69.292,49.57c1.134-3.867-3.231-6.922-6.472-4.527c-29.615,21.896-42.773,64.337-19.236,105.155
				c6.708,11.632,17.026,20.759,29.303,26.198c41.617,18.436,81.305,2.442,100.641-27.59c1.74-2.705-0.914-6.111-3.938-5.016
				C150.961,150.544,128.899,150.383,106.204,139.814z"/>
			
				<path opacity="0.6" fill="none" stroke="#F58472" stroke-width="3.4718" stroke-linecap="round" stroke-linejoin="round" stroke-miterlimit="10" d="
				M188.862,108.318c0-44.742-36.27-81.013-81.012-81.013c-5.593,0-11.053,0.567-16.326,1.646"/>
		</g>
	</g>
</g>
</svg>
