<?xml version="1.0" encoding="utf-8"?>
<!-- Generator: Adobe Illustrator 16.0.0, SVG Export Plug-In . SVG Version: 6.00 Build 0)  -->
<!DOCTYPE svg PUBLIC "-//W3C//DTD SVG 1.1//EN" "http://www.w3.org/Graphics/SVG/1.1/DTD/svg11.dtd">
<svg version="1.1" id="Capa_1" xmlns="http://www.w3.org/2000/svg" xmlns:xlink="http://www.w3.org/1999/xlink" x="0px" y="0px"
	 width="1947.163px" height="1499.041px" viewBox="0 0 1947.163 1499.041" enable-background="new 0 0 1947.163 1499.041"
	 xml:space="preserve">
<g>
	<path fill="#E6E7E8" d="M1464.817,635.786l-0.286-0.599l-147.477-308.21l0.596-0.152c12.43-3.175,304.466-77.757,309.436-77.757
		h0.162l0.133,0.096l154.345,111.194l-0.479,0.418L1464.817,635.786z M1318.496,327.651l146.659,306.503l314.946-273.722
		l-153.163-110.343C1618.157,251.147,1333.532,323.811,1318.496,327.651"/>
	<path fill="#E6E7E8" d="M1466,635.92l-1.201-0.481l-389.584-155.85l0.837-0.527l241.934-152.478l0.245,0.512L1466,635.92z
		 M1077.428,479.388l386.545,154.633l-146.408-305.978L1077.428,479.388z"/>
	<path fill="#E6E7E8" d="M1114.325,799.228c-0.085,0-0.17-0.021-0.246-0.064c-0.141-0.078-0.237-0.22-0.256-0.38l-38.003-319.236
		c-0.021-0.176,0.053-0.351,0.194-0.459c0.141-0.108,0.329-0.134,0.493-0.068l388.666,155.482c0.187,0.074,0.312,0.253,0.317,0.455
		c0.006,0.201-0.108,0.386-0.291,0.471L1114.538,799.18C1114.471,799.211,1114.398,799.228,1114.325,799.228 M1076.924,480.272
		l37.819,317.697l348.974-162.964L1076.924,480.272z"/>
	<path fill="#E6E7E8" d="M755.094,1042.299l0.728-0.621l241-205.629l0.091,0.409l34.166,152.681l-0.256,0.049L755.094,1042.299z
		 M996.512,836.978l-239.636,204.464l273.596-52.7L996.512,836.978z"/>
	<path fill="#E6E7E8" d="M755.225,1042.531l106.071-309.448l170.319,256.209l-0.745,0.145L755.225,1042.531z M861.587,735.344
		L756.744,1041.21l273.19-52.622L861.587,735.344z"/>
	<path fill="#E6E7E8" d="M1368.648,1009.345l0.158-0.618l96.058-374.292l0.315,0.373l172.21,203.671l-0.244,0.153L1368.648,1009.345
		z M1465.109,635.506l-95.655,372.729l267.177-169.873L1465.109,635.506z"/>
	<path fill="#E6E7E8" d="M1726.329,752.913c-0.069,0-0.141-0.015-0.206-0.044l-261.344-117.438c-0.156-0.07-0.267-0.216-0.292-0.387
		c-0.024-0.17,0.038-0.342,0.168-0.454l315.927-274.576c0.159-0.139,0.388-0.164,0.572-0.063c0.185,0.101,0.288,0.305,0.26,0.514
		l-54.585,392.015c-0.021,0.155-0.115,0.294-0.256,0.37C1726.498,752.893,1726.414,752.913,1726.329,752.913 M1465.914,634.833
		l260.009,116.839l54.305-390.012L1465.914,634.833z"/>
	<path fill="#E6E7E8" d="M1711.919,1291.024l-0.796-0.653l-342.9-281.608l0.534-0.384l358.106-256.974L1711.919,1291.024z
		 M1369.879,1008.815l341.088,280.121l14.83-535.524L1369.879,1008.815z"/>
	<path fill="#E6E7E8" d="M1369.051,1009.294c-0.01,0-0.02,0-0.029-0.001l-338.276-19.85c-0.165-0.009-0.314-0.099-0.4-0.24
		c-0.087-0.141-0.098-0.314-0.032-0.467l83.551-190.217c0.063-0.146,0.19-0.251,0.345-0.288c0.152-0.035,0.315,0.001,0.438,0.102
		l254.727,210.066c0.169,0.139,0.229,0.371,0.148,0.574C1369.444,1009.168,1369.258,1009.294,1369.051,1009.294 M1031.529,988.479
		l336.008,19.716l-253.019-208.657L1031.529,988.479z"/>
	<path fill="#E6E7E8" d="M1187.675,1267.196l0.669-0.956l180.606-258.188l240.858,197.807l-1.131,0.164L1187.675,1267.196z
		 M1369.152,1009.525l-179.312,256.337l417.562-60.674L1369.152,1009.525z"/>
	<path fill="#E6E7E8" d="M1290.331,703.127l-0.707-0.09l-272.613-34.773l59.198-189.26l0.295,0.31L1290.331,703.127z
		 M1017.673,667.839l271.309,34.607l-212.547-222.474L1017.673,667.839z"/>
	<path fill="#E6E7E8" d="M1357.473,521.345c-0.024,0-0.049-0.002-0.073-0.005l-281.151-41.353c-0.209-0.031-0.377-0.188-0.421-0.395
		c-0.043-0.207,0.046-0.419,0.226-0.531l241.453-152.175c0.14-0.088,0.313-0.1,0.468-0.037c0.152,0.065,0.263,0.201,0.296,0.362
		l39.697,193.526c0.033,0.162-0.015,0.329-0.127,0.449C1357.743,521.288,1357.61,521.345,1357.473,521.345 M1077.746,479.188
		l279.088,41.048l-39.407-192.106L1077.746,479.188z"/>
	<path fill="#E6E7E8" d="M1289.848,703.718l-214.905-224.942l1.452,0.213l281.77,41.443l-0.219,0.585L1289.848,703.718z
		 M1077.701,480.201l211.764,221.654l67.316-180.608L1077.701,480.201z"/>
	<path fill="#E6E7E8" d="M1464.986,635.475c-0.138,0-0.271-0.056-0.366-0.158l-107.515-114.131c-0.187-0.198-0.183-0.509,0.01-0.702
		l269.612-271.267c0.17-0.173,0.438-0.199,0.638-0.063c0.201,0.134,0.279,0.392,0.186,0.614l-162.099,385.399
		c-0.066,0.156-0.207,0.27-0.375,0.301C1465.047,635.473,1465.016,635.475,1464.986,635.475 M1358.175,520.85l106.647,113.21
		l160.791-382.291L1358.175,520.85z"/>
	<path fill="#E6E7E8" d="M1030.31,989.907l-0.039-0.946l-13.473-321.856l0.815,0.521l241.508,154.224l-0.594,0.437L1030.31,989.907z
		 M1017.887,668.997l13.353,318.977l226.098-166.065L1017.887,668.997z"/>
	<path fill="#E6E7E8" d="M908.159,1239.231l-0.247-0.32L755.534,1041.7l0.402-0.077l275.288-53.027l-0.224,0.455L908.159,1239.231z
		 M756.435,1042.041l151.629,196.24l122.262-248.997L756.435,1042.041z"/>
	<path fill="#E6E7E8" d="M1369.97,1009.349l-0.948-0.056l-339.674-19.931l1.128-0.829l227.903-167.39l0.283,0.479L1369.97,1009.349z
		 M1032.201,988.519l335.932,19.711l-110.055-185.613L1032.201,988.519z"/>
	<path fill="#E6E7E8" d="M1240.818,1498.073l127.943-490.174l0.609,0.5l240.037,197.132L1240.818,1498.073z M1369.34,1009.68
		l-126.782,485.725l365.243-289.887L1369.34,1009.68z"/>
	<path fill="#E6E7E8" d="M1710.457,1290.764l0.54-1.02l236.496-446.345l-0.678,3.391c-0.203,1.013-20.501,102.472-41.146,202.626
		c-41.849,203.026-44.221,203.026-45.36,203.026c-4.841,0-147.299,37.646-148.737,38.026L1710.457,1290.764z M1945.146,849.984
		l-232.718,439.214c14.271-3.771,140.621-37.115,147.708-37.756C1865.188,1244.689,1917.479,988.239,1945.146,849.984"/>
	<path fill="#E6E7E8" d="M1257.887,822.185l31.581-119.673l438.806,49.863L1257.887,822.185z M1289.844,703.062l-31.273,118.513
		l465.816-69.132L1289.844,703.062z"/>
	<path fill="#E6E7E8" d="M1947.632,846.979l-1.318-0.036l-309.912-8.287l89.874-86.545l0.153,0.065L1947.632,846.979z
		 M1637.619,838.183l307.39,8.221l-218.625-93.697L1637.619,838.183z"/>
	<path fill="#E6E7E8" d="M1946.319,847.195c-0.066,0-0.134-0.014-0.197-0.04l-219.991-94.282c-0.209-0.091-0.332-0.309-0.301-0.534
		l54.584-392.014c0.031-0.231,0.219-0.41,0.451-0.433c0.233-0.007,0.45,0.119,0.525,0.34l165.407,486.297
		c0.063,0.189,0.012,0.397-0.135,0.533C1946.568,847.149,1946.444,847.195,1946.319,847.195 M1726.883,752.096l218.595,93.686
		L1781.12,362.57L1726.883,752.096z"/>
	<g opacity="0.6">
		<g>
			<defs>
				<rect id="SVGID_220_" x="581.489" y="73.551" width="494.835" height="406.442"/>
			</defs>
			<clipPath id="SVGID_2_">
				<use xlink:href="#SVGID_220_"  overflow="visible"/>
			</clipPath>
			<polygon clip-path="url(#SVGID_2_)" fill="#E6E7E8" points="1076.321,479.993 906.978,479.993 909.588,335.685 795.537,74.931 
				581.942,182.207 581.488,181.305 796.035,73.551 910.602,335.482 908.005,478.983 1076.321,478.983 			"/>
		</g>
	</g>
	<g opacity="0.4">
		<g>
			<defs>
				<rect id="SVGID_222_" x="1152.523" y="57.106" width="296.221" height="286.532"/>
			</defs>
			<clipPath id="SVGID_4_">
				<use xlink:href="#SVGID_222_"  overflow="visible"/>
			</clipPath>
			<path clip-path="url(#SVGID_4_)" fill="#E6E7E8" d="M1152.524,343.639l88.819-286.532l0.455,0.102l206.949,46.543l-0.812,0.656
				L1152.524,343.639z M1242.031,58.295l-87.558,282.466l292.019-236.482L1242.031,58.295z"/>
		</g>
	</g>
	<g opacity="0.41">
		<g>
			<defs>
				<rect id="SVGID_224_" x="921.844" y="5.441" width="153.43" height="245.654"/>
			</defs>
			<clipPath id="SVGID_6_">
				<use xlink:href="#SVGID_224_"  overflow="visible"/>
			</clipPath>
			<path clip-path="url(#SVGID_6_)" fill="#E6E7E8" d="M972.28,251.096L921.843,73.958l153.428-68.515l-0.493,1.177L972.28,251.096z
				 M923.055,74.524l49.407,173.525L1073.354,7.405L923.055,74.524z"/>
		</g>
	</g>
	<g opacity="0.41">
		<g>
			<defs>
				<rect id="SVGID_226_" x="169.39" y="409.604" width="147.725" height="89.125"/>
			</defs>
			<clipPath id="SVGID_8_">
				<use xlink:href="#SVGID_226_"  overflow="visible"/>
			</clipPath>
			<path clip-path="url(#SVGID_8_)" fill="#E6E7E8" d="M169.39,498.729l59.522-89.125l0.396,0.188l87.808,42.008L169.39,498.729z
				 M229.265,410.892l-57.437,86.004l142.551-45.285L229.265,410.892z"/>
		</g>
	</g>
	<g opacity="0.41">
		<g>
			<defs>
				<rect id="SVGID_228_" x="596.786" y="232.358" width="265.865" height="116.963"/>
			</defs>
			<clipPath id="SVGID_10_">
				<use xlink:href="#SVGID_228_"  overflow="visible"/>
			</clipPath>
			<path clip-path="url(#SVGID_10_)" fill="#E6E7E8" d="M862.651,349.322H596.787l150.104-116.963l0.315,0.318L862.651,349.322z
				 M599.726,348.312h260.506L746.806,233.706L599.726,348.312z"/>
		</g>
	</g>
	<g opacity="0.41">
		<g>
			<defs>
				<rect id="SVGID_230_" x="403.868" y="5.751" width="194.68" height="85.646"/>
			</defs>
			<clipPath id="SVGID_12_">
				<use xlink:href="#SVGID_230_"  overflow="visible"/>
			</clipPath>
			<path clip-path="url(#SVGID_12_)" fill="#E6E7E8" d="M598.547,91.396H403.868L513.782,5.752l0.316,0.318L598.547,91.396z
				 M406.806,90.388h189.322l-82.433-83.29L406.806,90.388z"/>
		</g>
	</g>
	<g opacity="0.41">
		<g>
			<defs>
				<rect id="SVGID_232_" x="290.418" y="142.699" width="119.995" height="160.497"/>
			</defs>
			<clipPath id="SVGID_14_">
				<use xlink:href="#SVGID_232_"  overflow="visible"/>
			</clipPath>
			<path clip-path="url(#SVGID_14_)" fill="#E6E7E8" d="M308.603,303.196l-18.185-121.08l0.405-0.132l119.59-39.284l-0.756,1.189
				L308.603,303.196z M291.543,182.809l17.655,117.562l98.853-155.834L291.543,182.809z"/>
		</g>
	</g>
	<path fill="#E6E7E8" d="M573.404,591.79l157.378-119.555l0.307,0.236l122.82,95.073L573.404,591.79z M730.776,473.507
		L576.794,590.484l274.454-23.723L730.776,473.507z"/>
	<path fill="#E6E7E8" d="M701.767,889.606l-29.926-153.402l106.957-2.515L701.767,889.606z M673.061,737.186l29.125,149.294
		l74.967-151.741L673.061,737.186z"/>
	<g opacity="0.41">
		<g>
			<defs>
				<rect id="SVGID_234_" x="427.147" y="501.804" width="62.909" height="66.311"/>
			</defs>
			<clipPath id="SVGID_16_">
				<use xlink:href="#SVGID_234_"  overflow="visible"/>
			</clipPath>
			<path clip-path="url(#SVGID_16_)" fill="#E6E7E8" d="M427.147,568.114l15.303-66.311l47.606,33.155L427.147,568.114z
				 M443.098,503.485l-14.472,62.708l59.492-31.354L443.098,503.485z"/>
		</g>
	</g>
	<g opacity="0.41">
		<g>
			<defs>
				<rect id="SVGID_236_" x="200.03" y="998.583" width="67.099" height="56.692"/>
			</defs>
			<clipPath id="SVGID_18_">
				<use xlink:href="#SVGID_236_"  overflow="visible"/>
			</clipPath>
			<path clip-path="url(#SVGID_18_)" fill="#E6E7E8" d="M254.816,1055.275l-54.786-45.336l67.098-11.357L254.816,1055.275z
				 M202.372,1010.566l51.811,42.874l11.643-53.614L202.372,1010.566z"/>
		</g>
	</g>
	<g opacity="0.41">
		<g>
			<defs>
				<rect id="SVGID_238_" x="45.272" y="348.195" width="67.098" height="56.692"/>
			</defs>
			<clipPath id="SVGID_20_">
				<use xlink:href="#SVGID_238_"  overflow="visible"/>
			</clipPath>
			<path clip-path="url(#SVGID_20_)" fill="#E6E7E8" d="M100.059,404.887l-54.786-45.335l67.098-11.357L100.059,404.887z
				 M47.614,360.179l51.811,42.873l11.643-53.613L47.614,360.179z"/>
		</g>
	</g>
	<g opacity="0.41">
		<g>
			<defs>
				<rect id="SVGID_240_" x="360.878" y="896.937" width="178.656" height="200.326"/>
			</defs>
			<clipPath id="SVGID_22_">
				<use xlink:href="#SVGID_240_"  overflow="visible"/>
			</clipPath>
			<path clip-path="url(#SVGID_22_)" fill="#E6E7E8" d="M360.878,1097.263l73.467-200.328l0.559,0.724l104.631,135.207l-0.653,0.236
				L360.878,1097.263z M434.663,898.998l-72.092,196.581l175.314-63.192L434.663,898.998z"/>
		</g>
	</g>
	<g opacity="0.41">
		<g>
			<defs>
				<rect id="SVGID_242_" x="4.049" y="692.948" width="279.263" height="211.494"/>
			</defs>
			<clipPath id="SVGID_24_">
				<use xlink:href="#SVGID_242_"  overflow="visible"/>
			</clipPath>
			<path clip-path="url(#SVGID_24_)" fill="#E6E7E8" d="M283.312,904.441l-1.05-0.188L4.048,854.184l0.685-0.682l160.604-160.555
				L283.312,904.441z M6.128,853.532l275.264,49.537L165.105,694.605L6.128,853.532z"/>
		</g>
	</g>
	<g opacity="0.39">
		<g>
			<defs>
				<rect id="SVGID_244_" x="382.938" y="638.691" width="373.443" height="427.867"/>
			</defs>
			<clipPath id="SVGID_26_">
				<use xlink:href="#SVGID_244_"  overflow="visible"/>
			</clipPath>
			<polygon clip-path="url(#SVGID_26_)" fill="#E6E7E8" points="610.11,1066.559 488.664,713.031 382.938,639.519 383.515,638.69 
				489.511,712.392 489.565,712.548 609.558,1061.843 627.649,876.812 756.382,1041.56 755.587,1042.181 628.409,879.424 			"/>
		</g>
	</g>
	<path fill="#E6E7E8" d="M1608.605,1206.029c-0.113,0-0.228-0.038-0.32-0.115L1368.73,1009.18c-0.146-0.119-0.213-0.31-0.174-0.494
		c0.038-0.185,0.177-0.331,0.357-0.383l577.27-162.098c0.218-0.062,0.451,0.03,0.568,0.225c0.117,0.193,0.092,0.441-0.063,0.607
		l-337.716,358.833C1608.874,1205.976,1608.74,1206.029,1608.605,1206.029 M1370.119,1009.014l238.441,195.821l336.146-357.167
		L1370.119,1009.014z"/>
	<path fill="#E6E7E8" d="M1860.521,1253.372l-0.655-1.192l-124.343-226.884l0.313-0.266l211.285-179.683l-0.307,1.447
		L1860.521,1253.372z M1736.803,1025.533l123.295,224.968l85.421-402.467L1736.803,1025.533z"/>
	<path fill="#E6E7E8" d="M1153.498,342.705c-0.22,0-0.417-0.144-0.481-0.357c-0.07-0.228,0.029-0.475,0.239-0.59l147.061-80.834
		c0.136-0.075,0.299-0.083,0.441-0.021c0.144,0.061,0.25,0.186,0.289,0.337l17.217,65.947c0.037,0.143,0.01,0.296-0.075,0.417
		c-0.086,0.122-0.22,0.199-0.368,0.213l-164.276,14.886C1153.529,342.704,1153.514,342.705,1153.498,342.705 M1300.234,262.121
		l-144.376,79.359l161.278-14.614L1300.234,262.121z"/>
	<path fill="#E6E7E8" d="M1241.688,1497.243c-0.203,0-0.387-0.122-0.467-0.312l-210.912-507.799
		c-0.066-0.16-0.047-0.344,0.055-0.485c0.101-0.142,0.268-0.228,0.441-0.211l338.275,19.849c0.151,0.009,0.29,0.085,0.379,0.207
		c0.089,0.123,0.118,0.278,0.08,0.424l-127.363,487.95c-0.055,0.21-0.237,0.361-0.453,0.376
		C1241.711,1497.243,1241.699,1497.243,1241.688,1497.243 M1031.551,989.491l210.027,505.668l126.829-485.902L1031.551,989.491z"/>
	<path fill="#E6E7E8" d="M996.864,836.977l-0.35-0.262L860.474,734.562l0.4-0.171l156.772-66.742L996.864,836.977z M861.476,734.685
		L996.469,836.05l20.569-167.595L861.476,734.685z"/>
	<path fill="#E6E7E8" d="M1114.325,799.228c-0.041,0-0.083-0.005-0.124-0.016l-253.351-64.1c-0.211-0.053-0.363-0.233-0.381-0.449
		c-0.017-0.217,0.106-0.419,0.307-0.504l156.368-66.572c0.214-0.093,0.464-0.022,0.603,0.164l96.983,130.671
		c0.127,0.172,0.133,0.404,0.014,0.582C1114.649,799.146,1114.49,799.228,1114.325,799.228 M862.55,734.502l250.525,63.384
		l-95.901-129.214L862.55,734.502z"/>
	<path fill="#E6E7E8" d="M1503.08,1042.255l-244.079-220.396l0.7,0.03l377.764,16.298l-0.244,0.371L1503.08,1042.255z
		 M1260.379,822.423l242.603,219.062l133.573-202.833L1260.379,822.423z"/>
	<path fill="#E6E7E8" d="M1475.875,1185.182l-0.341-0.56l-107.017-176.225l0.594,0.146l134.212,33.139L1475.875,1185.182z
		 M1369.584,1009.181l106.042,174.619l27.112-141.742L1369.584,1009.181z"/>
	<path fill="#E6E7E8" d="M1502.539,1042.158l0.28-0.427l134.214-203.807l0.2,0.377l99.334,187.338l-0.387,0.025L1502.539,1042.158z
		 M1636.986,838.914l-133.464,202.667l232.235-16.392L1636.986,838.914z"/>
	<path fill="#E6E7E8" d="M1496.676,460.712l-0.222-0.165l-179.257-133.348l0.517-0.129l309.913-77.893L1496.676,460.712z
		 M1318.353,327.429l178.183,132.549l130.008-210.009L1318.353,327.429z"/>
	<path fill="#E6E7E8" d="M1726.498,753.03l-0.366-0.466l-229.942-292.341l0.332-0.117l284.699-100.087l-0.057,0.41L1726.498,753.03z
		 M1497.021,460.466l229.141,291.32l54.443-391.016L1497.021,460.466z"/>
	<path fill="#E6E7E8" d="M1465.146,635.507l-0.344-0.363l-107.76-114.393l0.329-0.143l139.565-60.684l-0.083,0.465L1465.146,635.507
		z M1357.902,520.929l106.925,113.505l31.445-173.669L1357.902,520.929z"/>
	<path fill="#E6E7E8" d="M1189.219,1266.828l-0.485-0.048l-281.01-27.81l123.034-250.569L1189.219,1266.828z M908.498,1238.541
		l279.799,27.689l-157.506-276.751L908.498,1238.541z"/>
	<path fill="#E6E7E8" d="M1188.143,1266.967l180.924-258.64l0.199,0.331l106.872,175.984l-0.317,0.091L1188.143,1266.967z
		 M1369.036,1009.251l-179.664,256.841l285.991-81.753L1369.036,1009.251z"/>
	<path fill="#E6E7E8" d="M1325.027,327.281c0,4.52-3.664,8.183-8.183,8.183c-4.52,0-8.183-3.663-8.183-8.183
		c0-4.519,3.663-8.183,8.183-8.183C1321.363,319.098,1325.027,322.762,1325.027,327.281"/>
	<path fill="#E6E7E8" d="M1086.612,480.377c0,5.464-4.43,9.894-9.894,9.894s-9.894-4.43-9.894-9.894s4.43-9.894,9.894-9.894
		S1086.612,474.913,1086.612,480.377"/>
	<path fill="#E6E7E8" d="M870.688,734.623c0,5.366-4.35,9.716-9.714,9.716c-5.366,0-9.716-4.35-9.716-9.716
		c0-5.364,4.35-9.714,9.716-9.714C866.339,724.909,870.688,729.259,870.688,734.623"/>
	<path fill="#E6E7E8" d="M1044.598,988.82c0,6.98-5.659,12.64-12.64,12.64s-12.64-5.659-12.64-12.64
		c0-6.981,5.659-12.64,12.64-12.64S1044.598,981.839,1044.598,988.82"/>
	<path fill="#E6E7E8" d="M1266.115,822.142c0,3.549-2.876,6.425-6.425,6.425s-6.426-2.876-6.426-6.425
		c0-3.55,2.877-6.426,6.426-6.426S1266.115,818.592,1266.115,822.142"/>
	<path fill="#E6E7E8" d="M1643.436,838.421c0,3.548-2.877,6.425-6.425,6.425c-3.55,0-6.427-2.877-6.427-6.425
		c0-3.55,2.877-6.426,6.427-6.426C1640.559,831.995,1643.436,834.871,1643.436,838.421"/>
	<path fill="#E6E7E8" d="M1003.092,836.513c0,3.549-2.877,6.425-6.426,6.425s-6.425-2.876-6.425-6.425
		c0-3.548,2.876-6.425,6.425-6.425S1003.092,832.965,1003.092,836.513"/>
	<path fill="#E6E7E8" d="M1023.768,668.052c0,3.548-2.876,6.425-6.425,6.425c-3.55,0-6.427-2.877-6.427-6.425
		c0-3.549,2.877-6.426,6.427-6.426C1020.892,661.626,1023.768,664.503,1023.768,668.052"/>
	<path fill="#E6E7E8" d="M635.909,881.617c0,3.549-2.877,6.426-6.426,6.426s-6.426-2.877-6.426-6.426s2.877-6.426,6.426-6.426
		S635.909,878.068,635.909,881.617"/>
	<path fill="#E6E7E8" d="M495.513,715.497c0,3.548-2.876,6.425-6.425,6.425c-3.55,0-6.427-2.877-6.427-6.425
		c0-3.55,2.877-6.426,6.427-6.426C492.637,709.071,495.513,711.947,495.513,715.497"/>
	<path fill="#E6E7E8" d="M916.52,480.377c0,3.548-2.877,6.425-6.425,6.425c-3.549,0-6.426-2.877-6.426-6.425
		c0-3.549,2.877-6.425,6.426-6.425C913.643,473.952,916.52,476.828,916.52,480.377"/>
	<path fill="#E6E7E8" d="M678.876,739.769c0,3.55-2.877,6.427-6.426,6.427s-6.425-2.877-6.425-6.427
		c0-3.548,2.876-6.425,6.425-6.425S678.876,736.221,678.876,739.769"/>
	<path fill="#E6E7E8" d="M581.524,591.138c0,3.549-2.876,6.425-6.425,6.425c-3.55,0-6.427-2.876-6.427-6.425
		s2.877-6.426,6.427-6.426C578.648,584.712,581.524,587.589,581.524,591.138"/>
	<path fill="#E6E7E8" d="M916.52,335.464c0,3.548-2.877,6.425-6.425,6.425c-3.549,0-6.426-2.877-6.426-6.425
		s2.877-6.425,6.426-6.425C913.643,329.039,916.52,331.917,916.52,335.464"/>
	<path fill="#E6E7E8" d="M1454.045,103.455c0,3.549-2.877,6.425-6.426,6.425s-6.426-2.876-6.426-6.425s2.877-6.425,6.426-6.425
		S1454.045,99.906,1454.045,103.455"/>
	<path fill="#E6E7E8" d="M1080.737,6.425c0,3.548-2.876,6.425-6.425,6.425s-6.426-2.877-6.426-6.425
		c0-3.549,2.877-6.425,6.426-6.425S1080.737,2.876,1080.737,6.425"/>
	<path fill="#E6E7E8" d="M802.211,74.241c0,3.549-2.876,6.425-6.425,6.425s-6.426-2.876-6.426-6.425
		c0-3.548,2.877-6.425,6.426-6.425S802.211,70.693,802.211,74.241"/>
	<path fill="#E6E7E8" d="M1294.965,702.646c0,3.55-2.876,6.426-6.425,6.426c-3.55,0-6.425-2.876-6.425-6.426
		c0-3.548,2.875-6.425,6.425-6.425C1292.089,696.221,1294.965,699.098,1294.965,702.646"/>
	<path fill="#E6E7E8" d="M1503.03,460.345c0,3.549-2.876,6.426-6.425,6.426s-6.426-2.877-6.426-6.426
		c0-3.547,2.877-6.424,6.426-6.424S1503.03,456.798,1503.03,460.345"/>
	<path fill="#E6E7E8" d="M1476.518,636.771c0,6.98-5.658,12.64-12.64,12.64c-6.979,0-12.639-5.659-12.639-12.64
		s5.659-12.641,12.639-12.641C1470.859,624.13,1476.518,629.79,1476.518,636.771"/>
	<path fill="#E6E7E8" d="M1126.965,798.723c0,6.981-5.659,12.64-12.641,12.64c-6.98,0-12.639-5.658-12.639-12.64
		c0-6.98,5.658-12.64,12.639-12.64C1121.306,786.083,1126.965,791.742,1126.965,798.723"/>
	<path fill="#E6E7E8" d="M1738.969,752.409c0,6.98-5.658,12.64-12.64,12.64c-6.979,0-12.639-5.659-12.639-12.64
		s5.659-12.641,12.639-12.641C1733.311,739.769,1738.969,745.429,1738.969,752.409"/>
	<path fill="#E6E7E8" d="M1381.691,1008.789c0,6.98-5.659,12.64-12.641,12.64c-6.98,0-12.639-5.659-12.639-12.64
		c0-6.979,5.658-12.639,12.639-12.639C1376.032,996.15,1381.691,1001.81,1381.691,1008.789"/>
	<path fill="#E6E7E8" d="M1368.229,521.642c0,6.979-5.659,12.64-12.641,12.64c-6.98,0-12.639-5.66-12.639-12.64
		c0-6.981,5.658-12.641,12.639-12.641C1362.569,509.001,1368.229,514.66,1368.229,521.642"/>
	<path fill="#E6E7E8" d="M1788.423,359.649c0,4.439-3.599,8.039-8.039,8.039s-8.039-3.6-8.039-8.039c0-4.44,3.599-8.039,8.039-8.039
		S1788.423,355.209,1788.423,359.649"/>
	<path fill="#E6E7E8" d="M1635.125,249.573c0,4.439-3.6,8.039-8.039,8.039c-4.44,0-8.039-3.6-8.039-8.039
		c0-4.44,3.599-8.039,8.039-8.039C1631.525,241.534,1635.125,245.133,1635.125,249.573"/>
</g>
</svg>
