<?xml version="1.0" encoding="utf-8"?>
<!-- Generator: Adobe Illustrator 16.0.0, SVG Export Plug-In . SVG Version: 6.00 Build 0)  -->
<!DOCTYPE svg PUBLIC "-//W3C//DTD SVG 1.1//EN" "http://www.w3.org/Graphics/SVG/1.1/DTD/svg11.dtd">
<svg version="1.1" id="Capa_1" xmlns="http://www.w3.org/2000/svg" xmlns:xlink="http://www.w3.org/1999/xlink" x="0px" y="0px"
	 width="478.176px" height="117.839px" viewBox="0 0 478.176 117.839" enable-background="new 0 0 478.176 117.839"
	 xml:space="preserve">
<g>
	<defs>
		<polygon id="SVGID_183_" points="55.696,34.083 42.938,69.587 30.364,34.083 20.583,34.083 38.284,84.061 47.458,84.061 
			65.465,34.083 		"/>
	</defs>
	<clipPath id="SVGID_2_">
		<use xlink:href="#SVGID_183_"  overflow="visible"/>
	</clipPath>
	
		<linearGradient id="SVGID_4_" gradientUnits="userSpaceOnUse" x1="-2475.4805" y1="1186.1123" x2="-2474.481" y2="1186.1123" gradientTransform="matrix(0 -57.2501 -57.2501 0 67948.0391 -141639.875)">
		<stop  offset="0" style="stop-color:#F7941D"/>
		<stop  offset="1" style="stop-color:#F9ED32"/>
	</linearGradient>
	<rect x="20.583" y="34.083" clip-path="url(#SVGID_2_)" fill="url(#SVGID_4_)" width="44.882" height="49.978"/>
</g>
<g>
	<defs>
		<polygon id="SVGID_186_" points="73.126,34.083 73.126,84.061 100.407,84.061 100.407,74.718 82.571,74.718 82.571,61.569 
			100.407,61.569 100.407,52.431 82.571,52.431 82.571,43.393 100.407,43.393 100.407,34.083 		"/>
	</defs>
	<clipPath id="SVGID_6_">
		<use xlink:href="#SVGID_186_"  overflow="visible"/>
	</clipPath>
	
		<linearGradient id="SVGID_8_" gradientUnits="userSpaceOnUse" x1="-2475.4805" y1="1186.1123" x2="-2474.481" y2="1186.1123" gradientTransform="matrix(0 -57.2501 -57.2501 0 67991.7891 -141639.875)">
		<stop  offset="0" style="stop-color:#F7941D"/>
		<stop  offset="1" style="stop-color:#F9ED32"/>
	</linearGradient>
	<rect x="73.126" y="34.083" clip-path="url(#SVGID_6_)" fill="url(#SVGID_8_)" width="27.281" height="49.978"/>
</g>
<g>
	<defs>
		<polygon id="SVGID_189_" points="139.818,34.083 139.818,66.972 118.435,34.083 109.31,34.083 109.31,84.061 118.823,84.061 
			118.823,51.275 140.181,84.061 149.331,84.061 149.331,34.083 		"/>
	</defs>
	<clipPath id="SVGID_10_">
		<use xlink:href="#SVGID_189_"  overflow="visible"/>
	</clipPath>
	
		<linearGradient id="SVGID_12_" gradientUnits="userSpaceOnUse" x1="-2475.4805" y1="1186.1133" x2="-2474.481" y2="1186.1133" gradientTransform="matrix(0 -57.2501 -57.2501 0 68034.3516 -141639.875)">
		<stop  offset="0" style="stop-color:#F7941D"/>
		<stop  offset="1" style="stop-color:#F9ED32"/>
	</linearGradient>
	<rect x="109.31" y="34.083" clip-path="url(#SVGID_10_)" fill="url(#SVGID_12_)" width="40.021" height="49.978"/>
</g>
<g>
	<defs>
		<path id="SVGID_192_" d="M170.226,43.257h3.229c5.912,0,10.203,1.316,12.877,3.946c2.965,2.925,4.449,7.04,4.449,12.346
			c0,3.447-0.621,6.348-1.867,8.706c-1.246,2.359-2.849,4.037-4.809,5.034c-1.959,0.998-5.113,1.497-9.461,1.497h-4.418V43.257z
			 M160.782,34.083v49.978h11.439c6.472,0,11.02-0.408,13.645-1.223c2.627-0.815,5.064-2.288,7.316-4.417
			c2.251-2.129,4.016-4.808,5.295-8.035c1.278-3.228,1.918-6.767,1.918-10.618c0-5.412-1.143-10.146-3.428-14.201
			c-2.287-4.053-5.194-6.981-8.725-8.782c-3.529-1.801-8.928-2.702-16.191-2.702H160.782z"/>
	</defs>
	<clipPath id="SVGID_14_">
		<use xlink:href="#SVGID_192_"  overflow="visible"/>
	</clipPath>
	
		<linearGradient id="SVGID_16_" gradientUnits="userSpaceOnUse" x1="-2475.4805" y1="1186.1113" x2="-2474.481" y2="1186.1113" gradientTransform="matrix(0 -57.2501 -57.2501 0 68085.6016 -141639.875)">
		<stop  offset="0" style="stop-color:#F7941D"/>
		<stop  offset="1" style="stop-color:#F9ED32"/>
	</linearGradient>
	<rect x="160.782" y="34.083" clip-path="url(#SVGID_14_)" fill="url(#SVGID_16_)" width="39.613" height="49.978"/>
</g>
<g>
	<defs>
		<polygon id="SVGID_195_" points="209.501,34.083 209.501,84.061 236.782,84.061 236.782,74.718 218.946,74.718 218.946,61.569 
			236.782,61.569 236.782,52.431 218.946,52.431 218.946,43.393 236.782,43.393 236.782,34.083 		"/>
	</defs>
	<clipPath id="SVGID_18_">
		<use xlink:href="#SVGID_195_"  overflow="visible"/>
	</clipPath>
	
		<linearGradient id="SVGID_20_" gradientUnits="userSpaceOnUse" x1="-2475.4805" y1="1186.1123" x2="-2474.481" y2="1186.1123" gradientTransform="matrix(0 -57.2501 -57.2501 0 68128.1641 -141639.875)">
		<stop  offset="0" style="stop-color:#F7941D"/>
		<stop  offset="1" style="stop-color:#F9ED32"/>
	</linearGradient>
	<rect x="209.501" y="34.083" clip-path="url(#SVGID_18_)" fill="url(#SVGID_20_)" width="27.281" height="49.978"/>
</g>
<g>
	<defs>
		<path id="SVGID_198_" d="M255.13,43.257h3.228c5.911,0,10.203,1.316,12.876,3.946c2.967,2.925,4.451,7.04,4.451,12.346
			c0,3.447-0.623,6.348-1.869,8.706c-1.244,2.359-2.848,4.037-4.807,5.034c-1.96,0.998-5.113,1.497-9.463,1.497h-4.416V43.257z
			 M245.685,34.083v49.978h11.439c6.474,0,11.021-0.408,13.646-1.223s5.062-2.288,7.314-4.417s4.018-4.808,5.297-8.035
			c1.277-3.228,1.918-6.767,1.918-10.618c0-5.412-1.143-10.146-3.43-14.201c-2.285-4.053-5.193-6.981-8.724-8.782
			c-3.53-1.801-8.927-2.702-16.192-2.702H245.685z"/>
	</defs>
	<clipPath id="SVGID_22_">
		<use xlink:href="#SVGID_198_"  overflow="visible"/>
	</clipPath>
	
		<linearGradient id="SVGID_24_" gradientUnits="userSpaceOnUse" x1="-2475.4805" y1="1186.1123" x2="-2474.481" y2="1186.1123" gradientTransform="matrix(0 -57.2501 -57.2501 0 68170.5078 -141639.875)">
		<stop  offset="0" style="stop-color:#F7941D"/>
		<stop  offset="1" style="stop-color:#F9ED32"/>
	</linearGradient>
	<rect x="245.685" y="34.083" clip-path="url(#SVGID_22_)" fill="url(#SVGID_24_)" width="39.615" height="49.978"/>
</g>
<g>
	<defs>
		<path id="SVGID_201_" d="M307.424,72.34c-3.968-3.216-5.951-7.588-5.951-13.114c0-4.961,1.573-9.049,4.726-12.266
			c3.151-3.216,7.041-4.824,11.666-4.824c4.579,0,8.469,1.647,11.666,4.943c3.196,3.296,4.795,7.322,4.795,12.078
			c0,4.779-1.588,8.801-4.762,12.061c-3.174,3.262-7.018,4.893-11.529,4.893C314.044,76.111,310.508,74.853,307.424,72.34
			 M304.895,36.343c-4.046,2.344-7.226,5.522-9.536,9.53c-2.312,4.009-3.468,8.404-3.468,13.183c0,7.134,2.481,13.295,7.444,18.482
			c4.964,5.188,11.197,7.781,18.699,7.781c7.162,0,13.254-2.526,18.273-7.577c5.02-5.05,7.531-11.224,7.531-18.516
			c0-7.361-2.545-13.602-7.633-18.721c-5.088-5.118-11.168-7.678-18.239-7.678C313.298,32.827,308.94,34,304.895,36.343"/>
	</defs>
	<clipPath id="SVGID_26_">
		<use xlink:href="#SVGID_201_"  overflow="visible"/>
	</clipPath>
	
		<linearGradient id="SVGID_28_" gradientUnits="userSpaceOnUse" x1="-2475.4805" y1="1186.1123" x2="-2474.481" y2="1186.1123" gradientTransform="matrix(0 -57.2501 -57.2501 0 68222.8828 -141639.875)">
		<stop  offset="0" style="stop-color:#F7941D"/>
		<stop  offset="1" style="stop-color:#F9ED32"/>
	</linearGradient>
	<rect x="291.891" y="32.827" clip-path="url(#SVGID_26_)" fill="url(#SVGID_28_)" width="51.948" height="52.492"/>
</g>
<g>
	<defs>
		<path id="SVGID_204_" d="M362.967,43.359h2.608c2.528,0,4.268,0.176,5.215,0.529c0.949,0.352,1.705,0.931,2.27,1.738
			s0.846,1.756,0.846,2.847c0,1.84-0.568,3.159-1.709,3.953c-1.141,0.796-3.224,1.194-6.248,1.194h-2.981V43.359z M353.454,34.083
			v49.978h9.513V62.895h0.87l11.238,21.166h10.4l-11.84-22.22c3.17-1.132,5.542-2.803,7.117-5.011
			c1.574-2.208,2.361-4.955,2.361-8.239c0-3.125-0.714-5.832-2.139-8.12c-1.426-2.287-3.309-3.923-5.65-4.909
			c-2.342-0.985-6.272-1.479-11.793-1.479H353.454z"/>
	</defs>
	<clipPath id="SVGID_29_">
		<use xlink:href="#SVGID_204_"  overflow="visible"/>
	</clipPath>
	
		<linearGradient id="SVGID_31_" gradientUnits="userSpaceOnUse" x1="-2475.4805" y1="1186.1133" x2="-2474.481" y2="1186.1133" gradientTransform="matrix(0 -57.2501 -57.2501 0 68274.4766 -141639.875)">
		<stop  offset="0" style="stop-color:#F7941D"/>
		<stop  offset="1" style="stop-color:#F9ED32"/>
	</linearGradient>
	<rect x="353.454" y="34.083" clip-path="url(#SVGID_29_)" fill="url(#SVGID_31_)" width="32.021" height="49.978"/>
</g>
<g>
	<defs>
		<polygon id="SVGID_207_" points="393.204,34.083 393.204,84.061 420.485,84.061 420.485,74.718 402.649,74.718 402.649,61.569 
			420.485,61.569 420.485,52.431 402.649,52.431 402.649,43.393 420.485,43.393 420.485,34.083 		"/>
	</defs>
	<clipPath id="SVGID_33_">
		<use xlink:href="#SVGID_207_"  overflow="visible"/>
	</clipPath>
	
		<linearGradient id="SVGID_35_" gradientUnits="userSpaceOnUse" x1="-2475.4805" y1="1186.1123" x2="-2474.481" y2="1186.1123" gradientTransform="matrix(0 -57.2501 -57.2501 0 68311.8516 -141639.875)">
		<stop  offset="0" style="stop-color:#F7941D"/>
		<stop  offset="1" style="stop-color:#F9ED32"/>
	</linearGradient>
	<rect x="393.204" y="34.083" clip-path="url(#SVGID_33_)" fill="url(#SVGID_35_)" width="27.281" height="49.978"/>
</g>
<g>
	<defs>
		<path id="SVGID_210_" d="M431.346,36.548c-2.642,2.479-3.963,5.452-3.963,8.918c0,2.401,0.794,4.807,2.383,7.219
			c1.587,2.412,5.104,5.839,10.55,10.278c2.859,2.332,4.707,4.066,5.549,5.198c0.838,1.133,1.258,2.265,1.258,3.397
			c0,1.246-0.556,2.345-1.668,3.295c-1.11,0.952-2.483,1.428-4.117,1.428c-3.129,0-5.897-2.209-8.303-6.625l-7.996,4.824
			c1.883,3.738,4.145,6.478,6.787,8.222c2.641,1.744,5.741,2.617,9.301,2.617c4.559,0,8.254-1.337,11.088-4.01
			c2.834-2.672,4.252-6.059,4.252-10.158c0-2.107-0.403-4.048-1.209-5.827c-0.805-1.778-2.172-3.64-4.1-5.589
			c-0.772-0.793-2.974-2.706-6.604-5.742c-3.879-3.284-6.205-5.424-6.977-6.421c-0.567-0.747-0.852-1.54-0.852-2.378
			s0.396-1.591,1.191-2.26c0.795-0.668,1.815-1.002,3.063-1.002c2.563,0,5.083,1.722,7.556,5.164l7.045-6.218
			c-2.629-3.057-5.073-5.164-7.328-6.319c-2.258-1.154-4.633-1.732-7.129-1.732C437.247,32.827,433.987,34.067,431.346,36.548"/>
	</defs>
	<clipPath id="SVGID_36_">
		<use xlink:href="#SVGID_210_"  overflow="visible"/>
	</clipPath>
	
		<linearGradient id="SVGID_38_" gradientUnits="userSpaceOnUse" x1="-2475.4805" y1="1186.1123" x2="-2474.481" y2="1186.1123" gradientTransform="matrix(0 -57.2501 -57.2501 0 68345.7891 -141639.875)">
		<stop  offset="0" style="stop-color:#F7941D"/>
		<stop  offset="1" style="stop-color:#F9ED32"/>
	</linearGradient>
	<rect x="425.038" y="32.827" clip-path="url(#SVGID_36_)" fill="url(#SVGID_38_)" width="31.428" height="52.492"/>
</g>
<g>
	<defs>
		<path id="SVGID_213_" d="M10.454,87.008V30.833c0-11.789,9.59-21.379,21.377-21.379h415.513c11.789,0,21.378,9.59,21.378,21.379
			v56.175c0,11.787-9.589,21.377-21.378,21.377H31.831C20.044,108.385,10.454,98.795,10.454,87.008 M31.831,0
			c-17,0-30.83,13.832-30.83,30.833v56.175c0,17,13.83,30.831,30.83,30.831h415.513c17.001,0,30.832-13.831,30.832-30.831V30.833
			C478.176,13.832,464.345,0,447.344,0H31.831z"/>
	</defs>
	<clipPath id="SVGID_40_">
		<use xlink:href="#SVGID_213_"  overflow="visible"/>
	</clipPath>
	
		<linearGradient id="SVGID_42_" gradientUnits="userSpaceOnUse" x1="-2477.8047" y1="1207.207" x2="-2476.8047" y2="1207.207" gradientTransform="matrix(0 -117.8383 -117.8383 0 142494.9062 -291862.5)">
		<stop  offset="0" style="stop-color:#F7941D"/>
		<stop  offset="1" style="stop-color:#F9ED32"/>
	</linearGradient>
	<rect x="1.001" clip-path="url(#SVGID_40_)" fill="url(#SVGID_42_)" width="477.175" height="117.839"/>
</g>
</svg>
